<?xml version="1.0" encoding="UTF-8"?>
<svg version="1.1" xmlns="http://www.w3.org/2000/svg" width="4000" height="2000">
<path d="M0 0 C1.90566861 -0.00597315 1.90566861 -0.00597315 3.84983557 -0.01206696 C5.26769055 -0.00636048 6.6855448 -0.00046928 8.10339832 0.00558662 C9.60329076 0.00471499 11.10318291 0.00296478 12.60307342 0.00040829 C16.7351054 -0.00407747 20.86703428 0.00395525 24.99905312 0.01396441 C29.45098475 0.02257897 33.90291029 0.01968017 38.35484791 0.01815987 C46.07159973 0.01710975 53.78831781 0.02339957 61.50506115 0.03463554 C72.66225472 0.05087044 83.81943193 0.05609649 94.97663603 0.05861153 C113.07723374 0.06299179 131.17781344 0.07630988 149.27840137 0.09521675 C166.86433797 0.11356698 184.45026966 0.12770475 202.03621387 0.13623238 C203.13076348 0.13676837 204.22531309 0.13730437 205.35303086 0.1378566 C213.91277352 0.1420153 222.47251629 0.1459292 231.03225911 0.14976573 C273.00877292 0.16864259 314.98524169 0.20887694 356.96175098 0.24609566 C356.96175098 53.04609566 356.96175098 105.84609566 356.96175098 160.24609566 C428.57175098 160.24609566 500.18175098 160.24609566 573.96175098 160.24609566 C573.96175098 192.58609566 573.96175098 224.92609566 573.96175098 258.24609566 C573.96254658 270.24586266 573.96334217 282.24562965 573.96416187 294.60902596 C573.96658505 347.28472355 573.96367359 399.96040654 573.92979908 452.63609505 C573.92892699 453.99566552 573.92892699 453.99566552 573.92803728 455.38270207 C573.91544523 474.93083824 573.90150935 494.4789732 573.88596069 514.02710724 C573.87843383 523.49390203 573.87118839 532.96069702 573.86409473 542.42749214 C573.86338445 543.36874536 573.86267416 544.30999858 573.86194235 545.27977462 C573.83887061 576.03961165 573.83566635 606.79941353 573.84225296 637.55925728 C573.84896812 669.39940271 573.83614028 701.2394814 573.79850482 733.07960679 C573.79320897 737.56708872 573.78813532 742.05457088 573.78319645 746.54205322 C573.78221784 747.42475404 573.78123922 748.30745486 573.78023096 749.21690419 C573.7650938 763.38600371 573.7705218 777.55502322 573.78378584 791.72412151 C573.79662189 805.90316257 573.78778119 820.08205729 573.75658946 834.26107109 C573.73874304 842.67371134 573.73761199 851.08596799 573.76037432 859.49859846 C573.7755173 865.77295116 573.75948397 872.04685765 573.73121215 878.32115679 C573.7246585 880.86076115 573.72828733 883.40041595 573.7430049 885.93998612 C573.7615068 889.38629773 573.74321605 892.83052975 573.71565533 896.27673626 C573.73689193 897.76108228 573.73689193 897.76108228 573.75855756 899.27541509 C573.64486629 906.3283768 571.64063669 910.94236333 566.96175098 916.24609566 C562.43385117 920.14053313 557.61464276 920.82509932 551.8044939 920.75403023 C551.01139258 920.76027019 550.21829125 920.76651015 549.40115654 920.77293921 C546.75812412 920.78882378 544.11601982 920.77628283 541.47298145 920.76367378 C539.57187839 920.76909719 537.67077953 920.77622107 535.76968861 920.78491402 C530.61433095 920.80313169 525.45929394 920.79608421 520.30393076 920.78339767 C514.89812433 920.77325314 509.4923449 920.78266822 504.08653736 920.78894234 C495.00257424 920.79621824 485.91874122 920.78663641 476.83479786 920.76758003 C466.35622116 920.74585077 455.87795628 920.75283423 445.39938724 920.77488565 C436.38677628 920.79308827 427.37425875 920.79557308 418.36163533 920.78513098 C412.98620162 920.77891766 407.61091398 920.77799985 402.23548985 920.79127693 C397.17430592 920.80290424 392.11351997 920.79468487 387.05237865 920.77169991 C385.20339904 920.76644767 383.35438546 920.7678662 381.50541973 920.77675056 C370.96616501 920.82268914 361.90642794 920.2011009 351.96175098 916.24609566 C350.60923142 915.70991993 350.60923142 915.70991993 349.22938824 915.16291237 C335.26561236 909.29417693 324.74942293 895.8448369 318.96175098 882.24609566 C316.42997373 874.87978198 315.52857254 868.07515702 315.5926075 860.31912136 C315.58914597 859.271456 315.58568443 858.22379065 315.582118 857.14437786 C315.57420035 853.64658742 315.58761694 850.14921433 315.60098743 846.65144539 C315.59967867 844.11344817 315.59705095 841.57545135 315.59321994 839.03745669 C315.58791554 833.52615991 315.59189626 828.01499144 315.60413456 822.50370789 C315.62228151 814.30873638 315.62313809 806.11382598 315.62050859 797.91883804 C315.61657173 784.13186154 315.62657273 770.34492825 315.64456081 756.55796432 C315.66232149 742.91026597 315.67386059 729.26258562 315.67711926 715.61487579 C315.67732547 714.76580135 315.67753169 713.91672691 315.67774416 713.04192295 C315.67875918 708.72977397 315.67966333 704.41762499 315.68052479 700.10547598 C315.68682337 669.57510715 315.70702804 639.04476181 315.73543262 608.5144062 C315.76299269 578.85750643 315.78424022 549.20061309 315.79695606 519.54370308 C315.79754793 518.17208885 315.79754793 518.17208885 315.79815175 516.77276524 C315.80210737 507.58975695 315.8059348 498.40674862 315.80966833 489.22374024 C315.81727665 470.51746184 315.82574041 451.81118387 315.83472157 433.10490608 C315.83513344 432.24485156 315.8355453 431.38479704 315.83596966 430.49868026 C315.86356428 373.08114222 315.91116148 315.66361747 315.96175098 258.24609566 C315.33786464 258.24799426 314.7139783 258.24989286 314.0711863 258.251849 C277.06962765 258.36381335 240.06809412 258.44956577 203.06640066 258.5014223 C198.6205471 258.50767561 194.17469388 258.51414724 189.72884083 258.52075386 C188.40124353 258.52272119 188.40124353 258.52272119 187.04682609 258.52472826 C172.72829007 258.54646677 158.40985472 258.58587971 144.09137836 258.63185964 C129.39212539 258.67866758 114.69292504 258.70640022 99.99360061 258.71653813 C90.9280772 258.72338831 81.86283842 258.74499996 72.79740265 258.78567799 C66.5753502 258.81216996 60.35344424 258.8200821 54.13133952 258.81360254 C50.54493595 258.81040962 46.95902867 258.8151981 43.37271404 258.84212303 C39.47498681 258.87117052 35.57789701 258.86098317 31.68007374 258.84736824 C30.55941619 258.86193245 29.43875865 258.87649665 28.28414178 258.8915022 C15.44388029 258.7707345 5.80193923 253.40226508 -3.53824902 244.99609566 C-5.03824902 243.24609566 -5.03824902 243.24609566 -5.03824902 241.24609566 C-5.69824902 241.24609566 -6.35824902 241.24609566 -7.03824902 241.24609566 C-8.02577965 239.521692 -9.00293708 237.79134539 -9.97574902 236.05859566 C-10.52102245 235.09566597 -11.06629589 234.13273628 -11.62809277 233.14062691 C-14.27366551 227.71024076 -14.18856351 222.39491692 -14.19214916 216.44703865 C-14.19653142 215.56086906 -14.20091367 214.67469947 -14.20542872 213.76167625 C-14.21878313 210.7923692 -14.22498792 207.8230918 -14.23112011 204.85376167 C-14.23902342 202.72485407 -14.24729252 200.5959478 -14.25590038 198.46704292 C-14.28208357 191.47804221 -14.2974196 184.48903559 -14.31168652 177.50000191 C-14.31704682 175.0939496 -14.32242433 172.68789733 -14.32781887 170.28184509 C-14.34943792 160.27671929 -14.36817654 150.27159508 -14.37944126 140.26645184 C-14.39569584 125.92417348 -14.42892159 111.58216535 -14.48584211 97.23998886 C-14.52450207 87.15580124 -14.54406901 77.07168603 -14.54936182 66.98742622 C-14.55301929 60.96321627 -14.5650839 54.93929478 -14.59746456 48.91516495 C-14.6274772 43.25077213 -14.63388117 37.58684338 -14.6220808 31.92238808 C-14.62185953 29.84307503 -14.6302086 27.76374085 -14.64773464 25.68450165 C-14.67035583 22.84648475 -14.66216414 20.01016096 -14.64625072 17.17213631 C-14.66707386 15.93696411 -14.66707386 15.93696411 -14.68831766 14.67683893 C-14.63208792 10.60925705 -14.27954686 8.03710757 -11.68774891 4.81321812 C-7.61569295 0.86776927 -5.56666536 -0.00383776 0 0 Z " fill="#FEFEFE" transform="translate(39.038249015808105,660.7539043426514)"/>
<path d="M0 0 C23.43 0 46.86 0 71 0 C77.95368779 8.11263576 84.67641633 16.07844642 91.20703125 24.484375 C94.58439818 28.7826237 98.15827962 32.90541483 101.73486328 37.0378418 C105.1698308 41.01220743 108.48830812 45.0581466 111.74609375 49.1796875 C114.77090967 52.96463914 117.85393617 56.7003525 120.9375 60.4375 C121.54730713 61.17669678 122.15711426 61.91589355 122.78540039 62.67749023 C123.97961745 64.12503093 125.17387096 65.57254157 126.36816406 67.02001953 C129.925216 71.33595179 133.46167239 75.66871385 137 80 C138.49985696 81.83345036 139.9998594 83.66678171 141.5 85.5 C147.5 92.83333333 153.5 100.16666667 159.5 107.5 C160.24894531 108.41523437 160.99789062 109.33046875 161.76953125 110.2734375 C163.20499935 112.02817784 164.63993796 113.78335155 166.07421875 115.5390625 C170.70323818 121.2034079 175.34813906 126.85440553 180 132.5 C185.34685204 138.98905001 190.68056318 145.48844833 196 152 C197.49985696 153.83345036 198.9998594 155.66678171 200.5 157.5 C206.5 164.83333333 212.5 172.16666667 218.5 179.5 C219.24894531 180.41523437 219.99789062 181.33046875 220.76953125 182.2734375 C222.20499935 184.02817784 223.63993796 185.78335155 225.07421875 187.5390625 C228.56524805 191.81089503 232.06210443 196.07751878 235.57421875 200.33203125 C236.51454956 201.47164307 236.51454956 201.47164307 237.47387695 202.63427734 C238.72032926 204.14436224 239.96753598 205.65382483 241.21557617 207.16259766 C241.79154541 207.86046387 242.36751465 208.55833008 242.9609375 209.27734375 C243.47446777 209.89859131 243.98799805 210.51983887 244.51708984 211.15991211 C246.05700289 213.07073277 247.52754477 215.03672636 249 217 C249.33 145.39 249.66 73.78 250 0 C277.72 0 305.44 0 334 0 C334 120.12 334 240.24 334 364 C310.57 364 287.14 364 263 364 C250.81265509 349.59677419 250.81265509 349.59677419 246.5625 344.0625 C242.3628508 338.64379443 237.97475436 333.42601068 233.48071289 328.25024414 C230.0307012 324.25651996 226.73147816 320.17197865 223.5 316 C219.25009642 310.51397062 214.81784129 305.22144856 210.27612305 299.9753418 C206.72438486 295.86674118 203.2911261 291.68216771 199.921875 287.421875 C196.33622706 282.90337556 192.65847685 278.45955713 189 274 C187.60403235 272.29177642 186.20820102 270.58344143 184.8125 268.875 C180.88554489 264.07462405 176.94393032 259.28643525 173 254.5 C167.65314796 248.01094999 162.31943682 241.51155167 157 235 C155.50014304 233.16654964 154.0001406 231.33321829 152.5 229.5 C143.5 218.5 143.5 218.5 134.5 207.5 C133.75105469 206.58476563 133.00210938 205.66953125 132.23046875 204.7265625 C130.79500065 202.97182216 129.36006204 201.21664845 127.92578125 199.4609375 C123.29676182 193.7965921 118.65186094 188.14559447 114 182.5 C108.6531458 176.01094736 103.32002384 169.51107395 98 163 C97.2059375 162.030625 96.411875 161.06125 95.59375 160.0625 C94.7996875 159.093125 94.005625 158.12375 93.1875 157.125 C92.47980469 156.26132812 91.77210938 155.39765625 91.04296875 154.5078125 C89.01394227 152.01711461 87.00686864 149.5085858 85 147 C84.67 218.61 84.34 290.22 84 364 C56.28 364 28.56 364 0 364 C0 243.88 0 123.76 0 0 Z " fill="#FFFFFF" transform="translate(3634,602)"/>
<path d="M0 0 C239.91470588 0 239.91470588 0 284.7265625 43.65625 C291.20851013 50.47935276 296.29003974 57.89636115 301 66 C301.6290625 67.07765625 302.258125 68.1553125 302.90625 69.265625 C306.61708897 76.13393221 309.13505746 83.02230109 311.3125 90.5 C311.55508545 91.32959229 311.7976709 92.15918457 312.04760742 93.01391602 C315.50576154 105.61802599 316.38086361 118.24874033 316.3125 131.25 C316.30976578 132.33400589 316.30976578 132.33400589 316.30697632 133.43991089 C316.25992804 144.53916572 315.72163357 155.20126033 313 166 C312.83371094 166.66128906 312.66742187 167.32257813 312.49609375 168.00390625 C305.18200057 196.12253115 287.99675993 221.77207854 262.82324219 236.94824219 C256.65800249 240.50473022 250.34794566 243.78421436 244 247 C245.34400328 250.76454649 247.0282667 253.63191134 249.4375 256.8125 C252.71911613 261.23299543 255.89511364 265.70378485 259 270.25 C263.63326397 277.0234733 268.30847947 283.76674824 273 290.5 C277.56185994 297.04881995 282.1138397 303.60364442 286.625 310.1875 C290.71225902 316.15168763 294.84814729 322.08061549 299 328 C304.66643472 336.08034518 310.29859417 344.18266727 315.86181641 352.33447266 C316.90777811 353.86504982 317.95947455 355.39170386 319.01171875 356.91796875 C319.56472656 357.72878906 320.11773438 358.53960938 320.6875 359.375 C321.14511719 360.04273438 321.60273438 360.71046875 322.07421875 361.3984375 C323 363 323 363 323 365 C311.25631368 365.20871611 299.51306989 365.36853829 287.76790524 365.46630955 C282.31375975 365.51324082 276.86088487 365.57687217 271.4074707 365.67895508 C266.14242172 365.77689288 260.87859302 365.8305882 255.61270332 365.85389519 C253.60591991 365.87049926 251.59920184 365.90292579 249.59293938 365.95157051 C233.87321311 366.31748828 233.87321311 366.31748828 229.27735901 363.08508301 C227.45841462 360.78506825 226.23603132 358.64869503 225 356 C224.03429942 354.575573 223.04878815 353.16416402 222.03515625 351.7734375 C221.04163235 350.30907833 220.05085082 348.84285564 219.0625 347.375 C217.93184177 345.70905672 216.80028972 344.04371982 215.66796875 342.37890625 C215.0754834 341.50766113 214.48299805 340.63641602 213.87255859 339.73876953 C210.57032062 334.90897741 207.22145415 330.11171221 203.875 325.3125 C199.39762062 318.88790637 194.92756189 312.45904139 190.5 306 C184.63989179 297.45335123 178.71794289 288.94979516 172.796875 280.4453125 C172.17103516 279.54458008 171.54519531 278.64384766 170.90039062 277.71582031 C169.5972385 275.85350477 168.28282033 273.9990368 166.95898438 272.15136719 C166.31767578 271.25321289 165.67636719 270.35505859 165.015625 269.4296875 C164.43586914 268.62515137 163.85611328 267.82061523 163.25878906 266.99169922 C162 265 162 265 162 263 C136.59 263 111.18 263 85 263 C85 296.66 85 330.32 85 365 C56.95 365 28.9 365 0 365 C0 244.55 0 124.1 0 0 Z M85 69 C85 110.58 85 152.16 85 195 C95.869375 195.020625 106.73875 195.04125 117.9375 195.0625 C121.33281006 195.071604 124.72812012 195.08070801 128.22631836 195.09008789 C130.97249309 195.09301347 133.71866826 195.09556051 136.46484375 195.09765625 C137.15179825 195.10026962 137.83875275 195.102883 138.54652405 195.10557556 C146.38436345 195.13382628 154.19090904 195.01093831 162.01782227 194.57202148 C162.6956951 194.53526086 163.37356794 194.49850023 164.07198238 194.46062565 C184.33455238 193.20257344 203.32460701 186.93623527 217.63671875 172.0078125 C223.81017963 164.15068047 228.96488286 154.02875789 230 144 C230.13019531 142.98035156 230.26039063 141.96070313 230.39453125 140.91015625 C232.12566392 123.99832175 229.45350578 107.19098834 218.9921875 93.33984375 C205.12986777 77.05841332 185.92792114 71.23228926 165.24371338 69.17865753 C158.30320974 68.62601419 151.3316151 68.75907295 144.375 68.8046875 C142.84244941 68.80763941 141.30989678 68.80967275 139.77734375 68.81079102 C134.18486446 68.82114539 128.59242874 68.84906663 123 68.875 C110.46 68.91625 97.92 68.9575 85 69 Z " fill="#FFFFFF" transform="translate(2112,602)"/>
<path d="M0 0 C28.05 0 56.1 0 85 0 C85 47.19 85 94.38 85 143 C139.12 143 193.24 143 249 143 C249 95.81 249 48.62 249 0 C277.05 0 305.1 0 334 0 C334 120.12 334 240.24 334 364 C305.95 364 277.9 364 249 364 C249 314.83 249 265.66 249 215 C194.88 215 140.76 215 85 215 C85 264.17 85 313.34 85 364 C56.95 364 28.9 364 0 364 C0 243.88 0 123.76 0 0 Z " fill="#FFFFFF" transform="translate(1293,602)"/>
<path d="M0 0 C28.05 0 56.1 0 85 0 C85.029729 9.37732544 85.029729 9.37732544 85.06005859 18.9440918 C85.12709968 39.64734487 85.20464017 60.35054891 85.28752708 81.05374432 C85.33750483 93.60051459 85.38394861 106.14727882 85.421875 118.6940918 C85.45496685 129.63850272 85.49489104 140.58286453 85.54279006 151.52722102 C85.56788534 157.31431987 85.58971528 163.10138686 85.60334396 168.88852501 C85.61632018 174.35255244 85.63853639 179.81646962 85.66738319 185.28043556 C85.67633901 187.26956096 85.68212052 189.25870405 85.68421364 191.24784851 C85.72086468 220.82818727 87.06861596 254.60030531 108.75 277.3125 C124.46769111 292.12796715 144.06940429 297.62019947 165.3125 297.4375 C167.21261841 297.42396484 167.21261841 297.42396484 169.15112305 297.41015625 C189.61820432 297.03319651 209.34950726 291.06907825 224 276 C243.3434935 252.66499197 245.28942355 223.25447981 245.31884766 194.24194336 C245.32816812 192.1113803 245.33833986 189.98082082 245.34928894 187.8502655 C245.37636437 182.12005755 245.39167101 176.38987385 245.40471697 170.65961909 C245.4204468 164.65118962 245.44720511 158.642809 245.4727478 152.63441467 C245.51936235 141.28064023 245.55618982 129.92685642 245.58942068 118.57303578 C245.62776514 105.63694434 245.67714265 92.70090217 245.72740483 79.7648524 C245.83046676 53.17660028 245.91835418 26.58832711 246 0 C273.72 0 301.44 0 330 0 C330.04528786 27.48763872 330.08207088 54.97524685 330.10362434 82.46291351 C330.11390157 95.22821903 330.1278933 107.99349958 330.15087891 120.75878906 C330.17092228 131.89546747 330.1837422 143.03212778 330.18817699 154.16882372 C330.19076598 160.05608901 330.19677559 165.94330257 330.21146011 171.83055115 C330.22521778 177.39222193 330.22918665 182.95382056 330.22621536 188.51550674 C330.22675752 190.53725199 330.23062512 192.55900011 330.23841095 194.58073044 C330.3068125 213.28875515 329.74887815 232.33507139 325.8125 250.6875 C325.48886475 252.22809082 325.48886475 252.22809082 325.15869141 253.79980469 C318.9608089 282.07191897 306.87691881 305.90386498 287 327 C286.17628906 327.90298828 286.17628906 327.90298828 285.3359375 328.82421875 C258.8708497 356.78856029 216.96269823 369.04249009 179.609375 370.91015625 C177.82273437 370.95462891 177.82273437 370.95462891 176 371 C175.22720703 371.02046387 174.45441406 371.04092773 173.65820312 371.06201172 C125.47779655 372.1653102 80.41835578 361.75105282 44 329 C43.00419922 328.11248047 43.00419922 328.11248047 41.98828125 327.20703125 C14.75155759 301.49404038 1.3029558 260.30469861 -0.09115994 223.59990764 C-0.12441797 221.13859631 -0.12868759 218.67914048 -0.12025452 216.21762085 C-0.12110894 215.28619377 -0.12196337 214.35476669 -0.12284368 213.39511454 C-0.12447865 210.30294033 -0.11900987 207.21082148 -0.11352539 204.11865234 C-0.11324306 201.89060467 -0.11340214 199.6625569 -0.1139679 197.43450928 C-0.11425409 191.40635988 -0.10838602 185.37823049 -0.10139394 179.35008574 C-0.09513088 173.04268718 -0.09455427 166.73528814 -0.09336853 160.42788696 C-0.09061636 149.84791729 -0.08437564 139.26795416 -0.07543945 128.68798828 C-0.06624829 117.79475948 -0.0591758 106.90153268 -0.05493164 96.00830078 C-0.05466892 95.33586702 -0.05440619 94.66343325 -0.05413551 93.9706227 C-0.05283039 90.59692896 -0.0515667 87.2232352 -0.05032361 83.84954143 C-0.03997148 55.89968805 -0.02154425 27.94984711 0 0 Z " fill="#FFFFFF" transform="translate(2492,602)"/>
<path d="M0 0 C28.05 0 56.1 0 85 0 C91.7414966 13.4829932 91.7414966 13.4829932 94.41796875 19.5703125 C94.86001396 20.57117386 94.86001396 20.57117386 95.31098938 21.59225464 C95.94287283 23.02322591 96.57356352 24.4547244 97.203125 25.88671875 C98.94476337 29.84687266 100.69692806 33.80236295 102.44921875 37.7578125 C103.00166763 39.00525238 103.00166763 39.00525238 103.5652771 40.27789307 C107.82242891 49.8765493 112.16164675 59.43784802 116.5 69 C122.71517897 82.70390516 128.87585245 96.43001041 134.96923828 110.18847656 C140.41796213 122.48710286 145.94471532 134.74917125 151.5 147 C157.40374265 160.01999714 163.27004818 173.05509401 169.0625 186.125 C174.62904573 198.6837509 180.23353953 211.22471115 185.875 223.75 C186.24922089 224.58094177 186.62344177 225.41188354 187.00900269 226.26800537 C189.67145912 232.17921547 192.33553656 238.08969434 195 244 C198.04278462 250.74949668 201.08479071 257.49934286 204.125 264.25 C204.49962372 265.08174744 204.87424744 265.91349487 205.26022339 266.77044678 C210.84627652 279.17610149 216.38844962 291.60062534 221.89654541 304.04107666 C225.96121996 313.21949916 230.06866328 322.37724521 234.22265625 331.515625 C234.66254379 332.48408356 235.10243134 333.45254211 235.5556488 334.4503479 C237.7181263 339.20996423 239.88492192 343.96754202 242.05834961 348.72216797 C242.84111353 350.44232345 243.62375343 352.16253538 244.40625 353.8828125 C244.77101944 354.67681458 245.13578888 355.47081665 245.51161194 356.28887939 C248 361.7731855 248 361.7731855 248 364 C218.3 364 188.6 364 158 364 C149.8125 344.4375 149.8125 344.4375 147.13452148 338.03295898 C143.41152134 329.12995975 139.68063579 320.23066462 135.91015625 311.34765625 C135.01310366 309.22904822 134.1164069 307.11028994 133.21981812 304.9914856 C132.6582944 303.6678085 132.09484862 302.34494507 131.52944946 301.0229187 C130.7519394 299.20477028 129.98124303 297.3837125 129.2109375 295.5625 C128.78087402 294.55316406 128.35081055 293.54382813 127.90771484 292.50390625 C127 290 127 290 127 287 C71.23 287 15.46 287 -42 287 C-42.99 289.97 -43.98 292.94 -45 296 C-45.62511427 297.64038106 -46.26821837 299.27422133 -46.94189453 300.89526367 C-47.293013 301.74452927 -47.64413147 302.59379486 -48.00588989 303.46879578 C-48.37777435 304.35952286 -48.74965881 305.25024994 -49.1328125 306.16796875 C-49.52894745 307.12407547 -49.9250824 308.08018219 -50.33322144 309.06526184 C-51.59423659 312.10722557 -52.85945079 315.14742017 -54.125 318.1875 C-55.36822022 321.18153173 -56.61053736 324.1759364 -57.85250854 327.17048645 C-58.62089317 329.02234057 -59.39009014 330.87385804 -60.16043091 332.72489929 C-64.486 343.13161131 -68.73258764 353.56854756 -73 364 C-102.04 364 -131.08 364 -161 364 C-159.01343863 358.0403159 -157.00540147 352.47366778 -154.40234375 346.8125 C-154.05627579 346.04949585 -153.71020782 345.2864917 -153.35365295 344.50036621 C-152.60812 342.8572426 -151.86070543 341.21497165 -151.11157227 339.57348633 C-149.07328488 335.1056994 -147.05046928 330.63091837 -145.02734375 326.15625 C-144.39981705 324.76919861 -144.39981705 324.76919861 -143.75961304 323.35412598 C-139.43051464 313.76919558 -135.21039197 304.13751302 -131 294.5 C-124.71692236 280.12773148 -118.33382903 265.80433777 -111.875 251.51025391 C-106.1681365 238.87539681 -100.55449596 226.20253438 -95 213.5 C-88.71561719 199.12829295 -82.33383684 184.80435507 -75.875 170.51025391 C-70.1681365 157.87539681 -64.55449596 145.20253438 -59 132.5 C-52.71694324 118.13132548 -46.33682455 103.81025964 -39.87902832 89.51931763 C-33.38701251 75.1471463 -27.01411452 60.7252475 -20.71484375 46.26757812 C-13.94967479 30.7775402 -6.95947923 15.41027544 0 0 Z M42 85 C30.53776595 112.35172456 19.09864876 139.71298288 7.70832825 167.09474182 C5.22110297 173.07214198 2.72710158 179.04666043 0.22770691 185.01898193 C-1.36914921 188.83647996 -2.96238111 192.65548386 -4.55490112 196.47479248 C-5.30304816 198.26669263 -6.05279459 200.05792594 -6.80422974 201.84844971 C-7.8359477 204.3073848 -8.86198234 206.76861768 -9.88671875 209.23046875 C-10.18985992 209.948965 -10.4930011 210.66746124 -10.80532837 211.4077301 C-12.29368183 215.00026163 -13.22908683 218.14543416 -14 222 C23.29 222 60.58 222 99 222 C96.76947032 215.17626791 96.76947032 215.17626791 94.23266602 208.51733398 C93.91627167 207.7501152 93.59987732 206.98289642 93.27389526 206.19242859 C92.93729889 205.38513809 92.60070251 204.5778476 92.25390625 203.74609375 C91.89088409 202.86850906 91.52786194 201.99092438 91.15383911 201.08674622 C89.95973781 198.2024056 88.76116846 195.31994525 87.5625 192.4375 C86.71632271 190.39625419 85.87037986 188.35491119 85.0246582 186.31347656 C78.10033013 169.60937726 71.13921148 152.92051634 64.17700195 136.23217773 C57.06349459 119.17713337 50.01275874 102.09669538 43 85 C42.67 85 42.34 85 42 85 Z " fill="#EB2248" transform="translate(3349,602)"/>
<path d="M0 0 C28.05 0 56.1 0 85 0 C91.7414966 13.4829932 91.7414966 13.4829932 94.41796875 19.5703125 C94.86001396 20.57117386 94.86001396 20.57117386 95.31098938 21.59225464 C95.94287283 23.02322591 96.57356352 24.4547244 97.203125 25.88671875 C98.94476337 29.84687266 100.69692806 33.80236295 102.44921875 37.7578125 C103.00166763 39.00525238 103.00166763 39.00525238 103.5652771 40.27789307 C107.82242891 49.8765493 112.16164675 59.43784802 116.5 69 C122.71517897 82.70390516 128.87585245 96.43001041 134.96923828 110.18847656 C140.41796213 122.48710286 145.94471532 134.74917125 151.5 147 C157.40374265 160.01999714 163.27004818 173.05509401 169.0625 186.125 C174.62904573 198.6837509 180.23353953 211.22471115 185.875 223.75 C186.24922089 224.58094177 186.62344177 225.41188354 187.00900269 226.26800537 C189.67145912 232.17921547 192.33553656 238.08969434 195 244 C198.04278462 250.74949668 201.08479071 257.49934286 204.125 264.25 C204.49962372 265.08174744 204.87424744 265.91349487 205.26022339 266.77044678 C210.84627652 279.17610149 216.38844962 291.60062534 221.89654541 304.04107666 C225.96121996 313.21949916 230.06866328 322.37724521 234.22265625 331.515625 C234.66254379 332.48408356 235.10243134 333.45254211 235.5556488 334.4503479 C237.7181263 339.20996423 239.88492192 343.96754202 242.05834961 348.72216797 C242.84111353 350.44232345 243.62375343 352.16253538 244.40625 353.8828125 C244.77101944 354.67681458 245.13578888 355.47081665 245.51161194 356.28887939 C248 361.7731855 248 361.7731855 248 364 C218.3 364 188.6 364 158 364 C149.8125 344.4375 149.8125 344.4375 147.13452148 338.03295898 C143.41152134 329.12995975 139.68063579 320.23066462 135.91015625 311.34765625 C135.01310366 309.22904822 134.1164069 307.11028994 133.21981812 304.9914856 C132.6582944 303.6678085 132.09484862 302.34494507 131.52944946 301.0229187 C130.7519394 299.20477028 129.98124303 297.3837125 129.2109375 295.5625 C128.78087402 294.55316406 128.35081055 293.54382813 127.90771484 292.50390625 C127 290 127 290 127 287 C71.23 287 15.46 287 -42 287 C-42.99 289.97 -43.98 292.94 -45 296 C-45.62511427 297.64038106 -46.26821837 299.27422133 -46.94189453 300.89526367 C-47.293013 301.74452927 -47.64413147 302.59379486 -48.00588989 303.46879578 C-48.37777435 304.35952286 -48.74965881 305.25024994 -49.1328125 306.16796875 C-49.52894745 307.12407547 -49.9250824 308.08018219 -50.33322144 309.06526184 C-51.59423659 312.10722557 -52.85945079 315.14742017 -54.125 318.1875 C-55.36822022 321.18153173 -56.61053736 324.1759364 -57.85250854 327.17048645 C-58.62089317 329.02234057 -59.39009014 330.87385804 -60.16043091 332.72489929 C-64.486 343.13161131 -68.73258764 353.56854756 -73 364 C-102.04 364 -131.08 364 -161 364 C-159.01343863 358.0403159 -157.00540147 352.47366778 -154.40234375 346.8125 C-154.05627579 346.04949585 -153.71020782 345.2864917 -153.35365295 344.50036621 C-152.60812 342.8572426 -151.86070543 341.21497165 -151.11157227 339.57348633 C-149.07328488 335.1056994 -147.05046928 330.63091837 -145.02734375 326.15625 C-144.39981705 324.76919861 -144.39981705 324.76919861 -143.75961304 323.35412598 C-139.43051464 313.76919558 -135.21039197 304.13751302 -131 294.5 C-124.71692236 280.12773148 -118.33382903 265.80433777 -111.875 251.51025391 C-106.1681365 238.87539681 -100.55449596 226.20253438 -95 213.5 C-88.71561719 199.12829295 -82.33383684 184.80435507 -75.875 170.51025391 C-70.1681365 157.87539681 -64.55449596 145.20253438 -59 132.5 C-52.71694324 118.13132548 -46.33682455 103.81025964 -39.87902832 89.51931763 C-33.38701251 75.1471463 -27.01411452 60.7252475 -20.71484375 46.26757812 C-13.94967479 30.7775402 -6.95947923 15.41027544 0 0 Z M42 85 C30.53776595 112.35172456 19.09864876 139.71298288 7.70832825 167.09474182 C5.22110297 173.07214198 2.72710158 179.04666043 0.22770691 185.01898193 C-1.36914921 188.83647996 -2.96238111 192.65548386 -4.55490112 196.47479248 C-5.30304816 198.26669263 -6.05279459 200.05792594 -6.80422974 201.84844971 C-7.8359477 204.3073848 -8.86198234 206.76861768 -9.88671875 209.23046875 C-10.18985992 209.948965 -10.4930011 210.66746124 -10.80532837 211.4077301 C-12.29368183 215.00026163 -13.22908683 218.14543416 -14 222 C23.29 222 60.58 222 99 222 C96.76947032 215.17626791 96.76947032 215.17626791 94.23266602 208.51733398 C93.91627167 207.7501152 93.59987732 206.98289642 93.27389526 206.19242859 C92.93729889 205.38513809 92.60070251 204.5778476 92.25390625 203.74609375 C91.89088409 202.86850906 91.52786194 201.99092438 91.15383911 201.08674622 C89.95973781 198.2024056 88.76116846 195.31994525 87.5625 192.4375 C86.71632271 190.39625419 85.87037986 188.35491119 85.0246582 186.31347656 C78.10033013 169.60937726 71.13921148 152.92051634 64.17700195 136.23217773 C57.06349459 119.17713337 50.01275874 102.09669538 43 85 C42.67 85 42.34 85 42 85 Z " fill="#EB2248" transform="translate(1826,602)"/>
<path d="M0 0 C-0.7046022 4.92543444 -2.61936998 9.23838175 -4.53515625 13.7890625 C-5.07057289 15.07591446 -5.07057289 15.07591446 -5.61680603 16.38876343 C-6.7610813 19.13598768 -7.91171237 21.88049829 -9.0625 24.625 C-9.80965814 26.41649433 -10.55640667 28.20815955 -11.30273438 30 C-16.1718153 41.67924944 -21.08330916 53.34072939 -26 65 C-29.9229707 63.74050368 -33.49820379 62.31223959 -37.14672852 60.38623047 C-74.60433108 40.61442089 -123.16321982 29.96427245 -164.65625 42.06640625 C-176.50195369 46.25945323 -186.69334724 52.00868107 -192.24609375 63.6015625 C-195.73362771 72.16955252 -196.38476097 80.13384549 -193.015625 88.84765625 C-186.99196506 101.61318173 -174.35562547 106.90757964 -161.69677734 111.4609375 C-153.8653226 114.12474586 -145.78961844 115.90666662 -137.73486328 117.75271606 C-134.6787038 118.45385669 -131.62617645 119.16923066 -128.57421875 119.88842773 C-122.71808746 121.26732622 -116.859261 122.63447348 -111 124 C-21.67934554 144.82307399 -21.67934554 144.82307399 2.4453125 181.4140625 C16.50814372 204.80500287 19.17827078 231.61699572 13.10546875 258.05859375 C8.75741798 275.29514835 0.15427051 290.14415694 -12 303 C-12.56847656 303.64710938 -13.13695313 304.29421875 -13.72265625 304.9609375 C-40.23883473 333.85068694 -84.38753748 343.90197566 -121.875 345.875 C-175.79188028 347.72295759 -244.75530457 340.46941432 -288 304 C-285.33201273 295.0082719 -281.31231791 286.67509521 -277.375 278.1875 C-276.28958257 275.83656743 -275.20555257 273.48499923 -274.12179565 271.13330078 C-273.40822221 269.58488509 -272.69413557 268.03670579 -271.97952271 266.48876953 C-269.95815672 262.10452688 -267.96725989 257.70885149 -266.015625 253.29296875 C-265.60135254 252.35622314 -265.18708008 251.41947754 -264.76025391 250.4543457 C-264.02303213 248.77934612 -263.29064823 247.10220582 -262.56396484 245.42260742 C-260.21880051 240.10940026 -260.21880051 240.10940026 -258 239 C-255.55368864 240.41227202 -253.22547906 241.87844106 -250.875 243.4375 C-210.43597346 269.39239975 -155.98413283 283.77949932 -108.171875 274.04296875 C-98.06029973 271.66196286 -87.59724097 268.36648365 -80 261 C-79.36578125 260.39285156 -78.7315625 259.78570313 -78.078125 259.16015625 C-72.20041251 253.02741905 -69.94304138 247.0057619 -69.5625 238.5625 C-69.80763529 231.25951117 -71.96494612 224.86928814 -76.875 219.375 C-97.63757626 200.79336662 -130.57999917 197.17475507 -156.75927734 190.85009766 C-244.4253401 169.64751365 -244.4253401 169.64751365 -267.92919922 132.76269531 C-281.3914143 110.60191261 -283.36426479 81.95308581 -277.90429688 57.00073242 C-273.3539872 38.3981077 -264.32197992 22.71891042 -251 9 C-250.19369141 8.10087891 -250.19369141 8.10087891 -249.37109375 7.18359375 C-223.59569331 -20.65900673 -180.40859702 -29.97799874 -144.16796875 -31.875 C-94.49769652 -33.5616809 -42.99009869 -26.52444241 0 0 Z " fill="#FFFFFF" transform="translate(3163,627)"/>
<path d="M0 0 C17.82 0 35.64 0 54 0 C54.33 34.65 54.66 69.3 55 105 C62.425 97.08 62.425 97.08 70 89 C75 84 75 84 77.1015625 81.9296875 C78.94544189 80.05545619 80.66629839 78.12249625 82.375 76.125 C85.26214819 72.75442235 88.34247378 69.61496479 91.5 66.5 C94.59492241 63.44662714 97.61934317 60.37676268 100.4375 57.0625 C103.45352827 53.523209 106.69447901 50.26505555 110 47 C113.28467991 43.75548124 116.50734004 40.52077642 119.5 37 C122.9754355 32.91125235 126.78100237 29.19183316 130.59545898 25.42407227 C133.94277553 22.10195114 137.08480767 18.67919692 140.13671875 15.08203125 C143.06762579 11.80703449 146.21158848 8.7467783 149.35766602 5.67944336 C152.02009579 3.10073298 152.02009579 3.10073298 154 0 C174.13 0 194.26 0 215 0 C213.30427347 3.39145307 212.41745372 4.7940711 209.8125 7.25 C207.30396664 9.6234133 205.00692173 12.11211825 202.74609375 14.71875 C199.02497975 19.00447747 195.15682702 23.13389566 191.25 27.25 C185.7065622 33.11420619 180.2122257 39.01512799 174.7734375 44.9765625 C171.54256378 48.50951937 168.27062256 52.00387802 165 55.5 C160.8101685 59.97933132 156.63791084 64.47263872 152.5 69 C147.79886717 74.14294267 143.05158648 79.24103276 138.29248047 84.33032227 C132.49995261 90.52744578 126.74581512 96.75958174 121 103 C128.84768796 113.53242331 136.86767438 123.88986631 145.18188477 134.05664062 C149.36227846 139.18095457 153.39669188 144.39695948 157.40625 149.65625 C160.36211063 153.49886881 163.43107807 157.2475131 166.5 161 C171.24855577 166.80623873 175.85853224 172.69106177 180.40625 178.65625 C183.36211069 182.49886889 186.43107889 186.24751202 189.5 190 C194.40391587 195.99623345 199.18710144 202.06703546 203.87890625 208.23046875 C207.33943409 213.29461505 207.33943409 213.29461505 212 217 C212.17482407 216.44530029 212.34964813 215.89060059 212.5297699 215.3190918 C214.25274574 209.98548181 216.25744363 204.90202842 218.59765625 199.8125 C218.94372421 199.04949585 219.28979218 198.2864917 219.64634705 197.50036621 C220.39188 195.8572426 221.13929457 194.21497165 221.88842773 192.57348633 C223.92671512 188.1056994 225.94953072 183.63091837 227.97265625 179.15625 C228.39100739 178.23154907 228.80935852 177.30684814 229.24038696 176.35412598 C233.56948536 166.76919558 237.78960803 157.13751302 242 147.5 C248.28307764 133.12773148 254.66617097 118.80433777 261.125 104.51025391 C266.83186581 91.87539172 272.44515468 79.20238513 278 66.5 C284.23848501 52.23719954 290.54947036 38.0089886 296.9375 23.8125 C297.32494385 22.95043945 297.7123877 22.08837891 298.11157227 21.20019531 C299.20690248 18.7642522 300.30418524 16.32920045 301.40234375 13.89453125 C301.72339584 13.18081863 302.04444794 12.46710602 302.37522888 11.73176575 C302.82938927 10.72722603 302.82938927 10.72722603 303.29272461 9.70239258 C303.55153915 9.12878494 303.8103537 8.55517731 304.07701111 7.96418762 C305.33559021 5.28583958 306.67655226 2.64689548 308 0 C325.82 0 343.64 0 362 0 C370.68684994 19.2739483 379.37278893 38.54655992 387.9375 57.875 C394.12789283 71.84388468 400.40796755 85.77076135 406.71798706 99.68597412 C412.52505395 112.49462119 418.2738371 125.32736574 423.9682312 138.1864624 C429.03725682 149.62964793 434.1740185 161.04084667 439.34408569 172.4387207 C445.50430538 186.02036573 451.64777181 199.60902166 457.68795776 213.24456787 C458.34973234 214.73783908 459.01274026 216.23056436 459.67703247 217.72271729 C460.58404288 219.76141332 461.48617121 221.80219255 462.38671875 223.84375 C462.89420654 224.99037109 463.40169434 226.13699219 463.92456055 227.31835938 C465 230 465 230 465 232 C446.19 232 427.38 232 408 232 C401.06022832 216.96382803 401.06022832 216.96382803 398.3515625 210.3984375 C398.04930756 209.66928131 397.74705261 208.94012512 397.43563843 208.18887329 C396.81098563 206.67907082 396.18773717 205.16868655 395.56591797 203.65771484 C394.6109715 201.34096614 393.64741311 199.02791301 392.68359375 196.71484375 C392.07239458 195.23459046 391.46169804 193.75412951 390.8515625 192.2734375 C390.56415192 191.58599457 390.27674133 190.89855164 389.98062134 190.1902771 C388.79662654 187.29287379 388 185.16293315 388 182 C353.02 182.33 318.04 182.66 282 183 C271.65318428 206.86134842 271.65318428 206.86134842 262 231 C248.46550667 231.23200095 234.93148852 231.40953517 221.39540958 231.51812172 C215.10948879 231.57024676 208.82493116 231.6409112 202.53979492 231.75439453 C196.47072966 231.86328704 190.40297287 231.92289142 184.33300591 231.94877243 C182.02084189 231.96720823 179.7087472 232.00321167 177.39714241 232.05730057 C158.31535804 232.48591484 158.31535804 232.48591484 153.62724304 228.83190918 C151.33602919 226.32226399 149.66419049 223.95020827 148 221 C147.06654641 219.80108005 146.11687371 218.61417663 145.13671875 217.453125 C144.3174223 216.38763282 143.50100865 215.31991772 142.6875 214.25 C138.38063064 208.67577065 133.88706989 203.30115266 129.27685547 197.97631836 C125.72500459 193.86728029 122.29137932 189.6824879 118.921875 185.421875 C115.33623264 180.90338259 111.65876306 176.45931292 108 172 C106.49971683 170.16689838 104.99971592 168.33356573 103.5 166.5 C102.76265625 165.59894531 102.0253125 164.69789063 101.265625 163.76953125 C99.71297828 161.87155449 98.16092466 159.97309243 96.609375 158.07421875 C95.83078125 157.12160156 95.0521875 156.16898438 94.25 155.1875 C93.51394531 154.28515625 92.77789063 153.3828125 92.01953125 152.453125 C90.34972733 150.42481386 88.65225175 148.42757808 86.9375 146.4375 C85 144 85 144 85 142 C78.85617448 146.9036123 73.57565223 152.53812408 68.27685547 158.31665039 C67.71111816 158.9327417 67.14538086 159.54883301 66.5625 160.18359375 C66.02513214 160.78203094 65.48776428 161.38046814 64.93411255 161.99703979 C63 164 63 164 60.93725586 165.64149475 C57.55505494 168.44986617 55.33489505 170.64661545 54.26000977 174.99046326 C53.98022098 178.57781857 53.94408122 182.08967202 54 185.6875 C53.98912354 186.98574707 53.97824707 188.28399414 53.96704102 189.62158203 C53.93877657 193.04819888 53.95778011 196.472932 53.98712158 199.8994751 C54.00861874 203.40575381 53.98517199 206.91172418 53.96484375 210.41796875 C53.928321 217.28018751 53.96602141 224.13632431 54 231 C36.18 231 18.36 231 0 231 C0 154.77 0 78.54 0 0 Z M334 55 C333.57928223 56.01682861 333.15856445 57.03365723 332.72509766 58.08129883 C331.07101811 62.07828235 329.41593202 66.07484845 327.76046753 70.07125854 C327.00455989 71.89616794 326.24880181 73.72113929 325.49319458 75.5461731 C320.97741474 86.45128952 316.44145135 97.34747669 311.86328125 108.2265625 C311.24117767 109.70629799 311.24117767 109.70629799 310.60650635 111.21592712 C308.58840997 116.01594745 306.56684601 120.81445326 304.53955078 125.6105957 C303.8061557 127.35361132 303.0729119 129.09669061 302.33984375 130.83984375 C302.00003983 131.64003937 301.6602359 132.44023499 301.31013489 133.26467896 C299.60904349 137.00254092 299.60904349 137.00254092 299 141 C322.43 141 345.86 141 370 141 C367.67417599 133.92394154 367.67417599 133.92394154 365.01391602 127.03222656 C364.65207718 126.16458679 364.29023834 125.29694702 363.91743469 124.40301514 C363.53347031 123.49142639 363.14950592 122.57983765 362.75390625 121.640625 C362.14224861 120.17728729 362.14224861 120.17728729 361.51823425 118.68438721 C360.20256554 115.53836465 358.8825344 112.39419291 357.5625 109.25 C356.65816329 107.08934559 355.75419345 104.92853759 354.85058594 102.76757812 C353.50085445 99.53981276 352.15092007 96.31213451 350.79977417 93.08496094 C347.0937698 84.23266824 343.41360238 75.36991241 339.75 66.5 C339.2557251 65.30407227 338.7614502 64.10814453 338.25219727 62.87597656 C337.16756517 60.25088423 336.08342688 57.62558991 335 55 C334.67 55 334.34 55 334 55 Z " fill="#FFFFFF" transform="translate(699,1216)"/>
<path d="M0 0 C0.68562012 0.18804199 1.37124023 0.37608398 2.07763672 0.56982422 C24.18274119 6.73766358 42.37191185 18.36376272 59 34 C59.59039063 34.5259375 60.18078125 35.051875 60.7890625 35.59375 C74.56097213 48.38661392 84.43154595 66.55986065 90.4375 84.1875 C90.66026611 84.83823486 90.88303223 85.48896973 91.11254883 86.15942383 C94.96408289 98.37004839 96.50832332 110.67539477 96.39111328 123.42724609 C96.37499733 125.50034288 96.39110168 127.57149168 96.41015625 129.64453125 C96.43080773 142.32949358 94.55705328 154.77439895 90.4375 166.8125 C90.18846924 167.54549316 89.93943848 168.27848633 89.68286133 169.03369141 C83.08735653 187.50423345 72.35798396 202.79468124 59 217 C58.4740625 217.59039063 57.948125 218.18078125 57.40625 218.7890625 C44.61338608 232.56097213 26.44013935 242.43154595 8.8125 248.4375 C8.16176514 248.66026611 7.51103027 248.88303223 6.84057617 249.11254883 C-6.01466467 253.16741086 -18.90556828 254.55768439 -32.3125 254.4375 C-33.02823181 254.43479095 -33.74396362 254.43208191 -34.48138428 254.42929077 C-46.05697726 254.36311232 -56.87882963 253.32194401 -68 250 C-69.25554687 249.66097656 -70.51109375 249.32195312 -71.8046875 248.97265625 C-91.98167006 242.97928194 -108.80773647 231.28605834 -124 217 C-124.88558594 216.21109375 -124.88558594 216.21109375 -125.7890625 215.40625 C-139.56097213 202.61338608 -149.43154595 184.44013935 -155.4375 166.8125 C-155.66026611 166.16176514 -155.88303223 165.51103027 -156.11254883 164.84057617 C-160.16741086 151.98533533 -161.55768439 139.09443172 -161.4375 125.6875 C-161.43479095 124.97176819 -161.43208191 124.25603638 -161.42929077 123.51861572 C-161.36311232 111.94302274 -160.32194401 101.12117037 -157 90 C-156.66097656 88.74445313 -156.32195313 87.48890625 -155.97265625 86.1953125 C-149.97928194 66.01832994 -138.28605834 49.19226353 -124 34 C-123.4740625 33.40960937 -122.948125 32.81921875 -122.40625 32.2109375 C-107.47777962 16.13998214 -85.91686431 5.608911 -65 0 C-63.7521875 -0.33902344 -62.504375 -0.67804687 -61.21875 -1.02734375 C-42.37348667 -5.18326056 -18.50218226 -5.34146425 0 0 Z " fill="#EB2248" transform="translate(872,664)"/>
<path d="M0 0 C104.94 0 209.88 0 318 0 C318 22.77 318 45.54 318 69 C279.39 69 240.78 69 201 69 C201 166.35 201 263.7 201 364 C172.95 364 144.9 364 116 364 C116 266.65 116 169.3 116 69 C77.72 69 39.44 69 0 69 C0 46.23 0 23.46 0 0 Z " fill="#FFFFFF" transform="translate(931,602)"/>
<path d="M0 0 C14.85 0 29.7 0 45 0 C54.04703929 9.46459494 54.04703929 9.46459494 55.48828125 14.30078125 C58.07646272 21.7056388 61.95299335 27.99432344 66.05340576 34.63378906 C68.15846201 38.0673502 70.19271667 41.54252006 72.23828125 45.01171875 C76.41471581 52.05663973 80.68560105 59.03858688 85 66 C90.9881078 75.66432731 96.8360705 85.40301808 102.625 95.1875 C108.33595596 104.83645715 114.05910878 114.4762366 119.875 124.0625 C120.70378662 125.43474731 120.70378662 125.43474731 121.54931641 126.8347168 C124.51715999 131.70979963 127.61832115 136.40166547 131 141 C131.53403442 140.08226807 131.53403442 140.08226807 132.07885742 139.14599609 C140.13861418 125.30017695 148.24093496 111.48077311 156.40429688 97.69580078 C158.51215512 94.13475875 160.61628114 90.57151833 162.72045898 87.00830078 C168.47989876 77.25584963 174.25144107 67.51060019 180.0269165 57.76763916 C185.6287929 48.3172473 191.22243753 38.86203526 196.80859375 29.40234375 C199.09010103 25.5389724 201.37443401 21.67728533 203.66015625 17.81640625 C204.26061768 16.80167236 204.8610791 15.78693848 205.47973633 14.74145508 C206.63659617 12.7865518 207.7939638 10.83194891 208.9519043 8.87768555 C209.72594604 7.56924683 209.72594604 7.56924683 210.515625 6.234375 C210.97227539 5.46319336 211.42892578 4.69201172 211.89941406 3.89746094 C212.63989408 2.62083922 213.33998884 1.32002232 214 0 C229.18 0 244.36 0 260 0 C260 76.56 260 153.12 260 232 C243.17 232 226.34 232 209 232 C208.67 187.78 208.34 143.56 208 98 C201.73 108.56 195.46 119.12 189 130 C184 138 184 138 181.75390625 141.546875 C177.69561042 148.04141308 173.83698092 154.6593944 169.9375 161.25 C163.47022955 172.17869338 156.96294945 183.08106342 150.375 193.9375 C150.00543182 194.54766968 149.63586365 195.15783936 149.25509644 195.78649902 C148.22120689 197.49278963 147.18488804 199.19760755 146.1484375 200.90234375 C145.56239746 201.86648193 144.97635742 202.83062012 144.37255859 203.82397461 C142.43646352 206.89341882 142.43646352 206.89341882 139.84545898 207.52612305 C132.16804469 208.83452653 124.45393346 209.6860286 117 207 C110.27909602 201.28637013 106.70930223 192.56419942 102.89794922 184.75488281 C100.16996496 179.24132964 96.89131009 174.06979415 93.63766479 168.85601807 C91.8297394 165.94525357 90.06122067 163.0107504 88.2890625 160.078125 C87.57468749 158.89900176 86.86016917 157.71996533 86.14550781 156.54101562 C85.072688 154.77044171 83.99990601 152.99984488 82.92712402 151.22924805 C80.77528981 147.67787673 78.62267906 144.126978 76.46920776 140.57659912 C75.50750147 138.99045367 74.54680196 137.40369792 73.58618164 135.81689453 C66.11988791 123.50560563 58.54669985 111.26338725 51 99 C50.67 142.89 50.34 186.78 50 232 C33.5 232 17 232 0 232 C0 155.44 0 78.88 0 0 Z " fill="#FFFFFF" transform="translate(2205,1216)"/>
<path d="M0 0 C1.16817245 0.00669217 1.16817245 0.00669217 2.35994434 0.01351953 C3.18511964 0.01039954 4.01029493 0.00727956 4.86047554 0.00406504 C7.64121302 -0.00394845 10.42173431 0.00242165 13.20247364 0.00869775 C15.18964739 0.00598937 17.17682014 0.00242931 19.16399097 -0.00192237 C24.57295012 -0.01106689 29.98183327 -0.00749364 35.3907938 -0.0011642 C41.04066904 0.00388515 46.69053761 -0.00079267 52.34041309 -0.00393653 C61.82992698 -0.00757929 71.31940978 -0.00276895 80.80891895 0.00674462 C91.79365022 0.01762976 102.77830726 0.0141044 113.76303673 0.00309181 C123.17959734 -0.00597224 132.59613556 -0.00727067 142.01269913 -0.00203085 C147.6432406 0.00109372 153.27374713 0.0014849 158.90428638 -0.00510383 C164.19671716 -0.01086386 169.48905185 -0.00690511 174.78147221 0.00468469 C176.72860142 0.00733849 178.67573866 0.006554 180.62286472 0.00215936 C183.27150066 -0.00326926 185.91982462 0.00350513 188.56844044 0.01351953 C189.34722207 0.00905808 190.1260037 0.00459664 190.92838478 0 C196.23589228 0.0391867 196.23589228 0.0391867 198.46419239 2.26748681 C198.71587467 5.00677514 198.71587467 5.00677514 198.71815968 8.56875634 C198.72283965 9.54925549 198.72283965 9.54925549 198.72761416 10.54956269 C198.7356206 12.74989873 198.72926041 14.949961 198.72298145 17.15029931 C198.72569015 18.72368556 198.72925039 20.29707055 198.73360157 21.87045312 C198.74274233 26.15135564 198.7391744 30.43216208 198.7328434 34.71306634 C198.72779211 39.18579904 198.73247242 43.65852333 198.73561573 48.13125634 C198.73925793 55.64347845 198.73444965 63.15566128 198.72493458 70.66787744 C198.71404954 79.36228926 198.71757494 88.0566073 198.72858739 96.75101686 C198.73765306 104.20581198 198.73894908 111.66057881 198.73371005 119.11537766 C198.73058638 123.57220394 198.73019186 128.02898609 198.73678303 132.48580956 C198.74254542 136.67512696 198.73858 140.86432302 198.72699451 145.05362725 C198.72434198 146.5943916 198.72512308 148.13516609 198.72951984 149.67592645 C198.73495353 151.77282958 198.72816818 153.86933947 198.71815968 155.96621728 C198.7170286 157.72939797 198.7170286 157.72939797 198.71587467 159.52819848 C198.46419239 162.26748681 198.46419239 162.26748681 196.46419239 164.26748681 C193.79808415 164.46512131 191.23575268 164.53673445 188.56844044 164.5214541 C187.74326514 164.52457408 186.91808985 164.52769406 186.06790924 164.53090858 C183.28717176 164.53892207 180.50665047 164.53255197 177.72591114 164.52627587 C175.73873739 164.52898425 173.75156464 164.53254431 171.76439381 164.53689599 C166.35543466 164.54604051 160.94655151 164.54246726 155.53759098 164.53613782 C149.88771574 164.53108847 144.23784718 164.53576629 138.58797169 164.53891015 C129.0984578 164.54255291 119.608975 164.53774257 110.11946583 164.528229 C99.13473456 164.51734386 88.15007752 164.52086922 77.16534805 164.53188181 C67.74878744 164.54094586 58.33224922 164.54224429 48.91568565 164.53700447 C43.28514418 164.53387991 37.65463765 164.53348872 32.0240984 164.54007745 C26.73166762 164.54583748 21.43933293 164.54187873 16.14691257 164.53028893 C14.19978336 164.52763514 12.25264612 164.52841962 10.30552006 164.53281426 C7.65688412 164.53824289 5.00856016 164.53146849 2.35994434 164.5214541 C1.19177189 164.52814626 1.19177189 164.52814626 0 164.53497362 C-5.3075075 164.49578692 -5.3075075 164.49578692 -7.53580761 162.26748681 C-7.78748989 159.52819848 -7.78748989 159.52819848 -7.78977489 155.96621728 C-7.79289488 155.31255118 -7.79601486 154.65888509 -7.79922938 153.98541093 C-7.80723582 151.78507489 -7.80087563 149.58501262 -7.79459667 147.38467431 C-7.79730537 145.81128806 -7.80086561 144.23790307 -7.80521679 142.6645205 C-7.81435755 138.38361798 -7.81078962 134.10281154 -7.80445862 129.82190728 C-7.79940733 125.34917458 -7.80408764 120.87645029 -7.80723095 116.40371728 C-7.81087314 108.89149517 -7.80606487 101.37931234 -7.7965498 93.86709619 C-7.78566476 85.17268436 -7.78919016 76.47836632 -7.80020261 67.78395677 C-7.80926828 60.32916164 -7.8105643 52.87439481 -7.80532527 45.41959596 C-7.8022016 40.96276968 -7.80180708 36.50598753 -7.80839825 32.04916406 C-7.81416064 27.85984667 -7.81019522 23.6706506 -7.79860973 19.48134637 C-7.7959572 17.94058202 -7.7967383 16.39980753 -7.80113506 14.85904717 C-7.80656875 12.76214404 -7.7997834 10.66563415 -7.78977489 8.56875634 C-7.78902084 7.39330255 -7.78826679 6.21784875 -7.78748989 5.00677514 C-7.30911073 -0.19986254 -4.58797693 0.03387422 0 0 Z " fill="#EB2248" transform="translate(460.5358076095581,611.7325131893158)"/>
<path d="M0 0 C14.85 0 29.7 0 45 0 C51.95368779 8.11263576 58.67641633 16.07844642 65.20703125 24.484375 C68.58085618 28.77811594 72.15047436 32.89704602 75.72387695 37.0246582 C79.27561514 41.13325882 82.7088739 45.31783229 86.078125 49.578125 C89.66377294 54.09662444 93.34152315 58.54044287 97 63 C98.39596765 64.70822358 99.79179898 66.41655857 101.1875 68.125 C105.11445511 72.92537595 109.05606968 77.71356475 113 82.5 C118.34685204 88.98905001 123.68056318 95.48844833 129 102 C130.49985696 103.83345036 131.9998594 105.66678171 133.5 107.5 C136.5 111.16666667 139.5 114.83333333 142.5 118.5 C143.2321875 119.39460938 143.964375 120.28921875 144.71875 121.2109375 C146.32404236 123.17357233 147.9282639 125.13704666 149.53125 127.1015625 C150.3459375 128.09929687 151.160625 129.09703125 152 130.125 C152.7425 131.03507812 153.485 131.94515625 154.25 132.8828125 C155.13277792 133.95081615 156.02022231 135.02022231 157 136 C157.495 68.68 157.495 68.68 158 0 C175.82 0 193.64 0 212 0 C212 76.56 212 153.12 212 232 C197.15 232 182.3 232 167 232 C153.90140845 216.71830986 153.90140845 216.71830986 148.921875 210.421875 C145.33623264 205.90338259 141.65876306 201.45931292 138 197 C136.49971683 195.16689838 134.99971592 193.33356573 133.5 191.5 C132.75105469 190.58476563 132.00210937 189.66953125 131.23046875 188.7265625 C129.79500065 186.97182216 128.36006204 185.21664845 126.92578125 183.4609375 C122.29676182 177.7965921 117.65186094 172.14559447 113 166.5 C107.65314796 160.01094999 102.31943682 153.51155167 97 147 C95.50014304 145.16654964 94.0001406 143.33321829 92.5 141.5 C74.5 119.5 74.5 119.5 72.2578125 116.7578125 C70.73403112 114.89658472 69.20793284 113.0372517 67.6796875 111.1796875 C66.91914062 110.25414062 66.15859375 109.32859375 65.375 108.375 C64.70210937 107.55773438 64.02921875 106.74046875 63.3359375 105.8984375 C60.17248869 101.97322175 57.09506012 97.97936301 54 94 C53.67 139.54 53.34 185.08 53 232 C35.51 232 18.02 232 0 232 C0 155.44 0 78.88 0 0 Z " fill="#FFFFFF" transform="translate(1687,1216)"/>
<path d="M0 0 C0.71431183 -0.00067474 1.42862366 -0.00134949 2.1645813 -0.00204468 C13.23503926 0.0145569 23.85093825 0.55250204 34.625 3.25 C35.66769043 3.49943359 35.66769043 3.49943359 36.73144531 3.75390625 C68.09701138 11.44224292 94.6088225 30.80830043 111.47900391 58.30322266 C122.47879877 76.98928236 127.02940022 97.69563079 127 119.25 C126.99945618 119.92709015 126.99891235 120.6041803 126.99835205 121.30178833 C126.89364087 149.78616146 118.16611472 177.0269427 98.625 198.25 C98.15078613 198.7665918 97.67657227 199.28318359 97.18798828 199.81542969 C73.39531959 225.44064333 41.40376115 238.1833145 6.69140625 239.53515625 C-30.76097249 240.38146938 -65.05088858 229.48005189 -92.55053711 203.46020508 C-115.47094558 181.19002096 -126.05803758 151.33314189 -126.625 119.75 C-126.06092636 86.46965513 -114.27022179 57.41013744 -90.91015625 33.75390625 C-65.98878929 10.44818707 -33.6414777 0.02852079 0 0 Z M-52.95263672 68.59082031 C-67.54724641 85.61535986 -72.74963372 106.50089748 -71.13671875 128.5 C-69.01911473 147.32314683 -60.48570722 165.08298653 -45.84375 177.375 C-28.83110829 190.28114199 -9.71370113 195.46308045 11.51171875 192.75390625 C30.83205877 189.23931202 47.21398403 180.14004572 58.91796875 164.109375 C70.84734602 145.57743433 74.67706043 124.59808487 71.0078125 102.84765625 C67.64088166 88.88830141 61.04019785 76.16583905 50.625 66.25 C49.8928125 65.53328125 49.160625 64.8165625 48.40625 64.078125 C33.55553656 50.16865396 15.81471442 45.66395552 -4.1328125 45.98046875 C-22.71569247 46.66559854 -40.37195438 54.94075933 -52.95263672 68.59082031 Z " fill="#FFFFFF" transform="translate(2907.375,1211.75)"/>
<path d="M0 0 C0.71431183 -0.00067474 1.42862366 -0.00134949 2.1645813 -0.00204468 C13.23503926 0.0145569 23.85093825 0.55250204 34.625 3.25 C35.66769043 3.49943359 35.66769043 3.49943359 36.73144531 3.75390625 C68.09701138 11.44224292 94.6088225 30.80830043 111.47900391 58.30322266 C122.47879877 76.98928236 127.02940022 97.69563079 127 119.25 C126.99945618 119.92709015 126.99891235 120.6041803 126.99835205 121.30178833 C126.89364087 149.78616146 118.16611472 177.0269427 98.625 198.25 C98.15078613 198.7665918 97.67657227 199.28318359 97.18798828 199.81542969 C73.39531959 225.44064333 41.40376115 238.1833145 6.69140625 239.53515625 C-30.76097249 240.38146938 -65.05088858 229.48005189 -92.55053711 203.46020508 C-115.47094558 181.19002096 -126.05803758 151.33314189 -126.625 119.75 C-126.06092636 86.46965513 -114.27022179 57.41013744 -90.91015625 33.75390625 C-65.98878929 10.44818707 -33.6414777 0.02852079 0 0 Z M-52.95263672 68.59082031 C-67.54724641 85.61535986 -72.74963372 106.50089748 -71.13671875 128.5 C-69.01911473 147.32314683 -60.48570722 165.08298653 -45.84375 177.375 C-28.83110829 190.28114199 -9.71370113 195.46308045 11.51171875 192.75390625 C30.83205877 189.23931202 47.21398403 180.14004572 58.91796875 164.109375 C70.84734602 145.57743433 74.67706043 124.59808487 71.0078125 102.84765625 C67.64088166 88.88830141 61.04019785 76.16583905 50.625 66.25 C49.8928125 65.53328125 49.160625 64.8165625 48.40625 64.078125 C33.55553656 50.16865396 15.81471442 45.66395552 -4.1328125 45.98046875 C-22.71569247 46.66559854 -40.37195438 54.94075933 -52.95263672 68.59082031 Z " fill="#FFFFFF" transform="translate(2629.375,1211.75)"/>
<path d="M0 0 C122.77167747 0 122.77167747 0 137.75 4.25 C138.53455566 4.46688477 139.31911133 4.68376953 140.12744141 4.90722656 C160.79354818 10.82867472 179.33905485 22.35414754 190.5078125 41.19140625 C201.92002412 62.671459 203.85844338 87.69950425 197.2890625 111.0390625 C190.48330617 133.09575297 174.46403092 147.12535924 155 158 C155.36649658 158.52207031 155.73299316 159.04414062 156.1105957 159.58203125 C162.66907916 168.92820266 169.21462758 178.28180366 175.66870117 187.70043945 C179.79412496 193.71471959 183.95829253 199.70177002 188.125 205.6875 C188.81062012 206.67363281 189.49624023 207.65976563 190.20263672 208.67578125 C193.13206996 212.88794581 196.06425576 217.09773001 199.0234375 221.2890625 C199.45124512 221.89790283 199.87905273 222.50674316 200.31982422 223.1340332 C201.4078829 224.68148943 202.50060311 226.22566521 203.59375 227.76953125 C205 230 205 230 205 232 C197.55920439 232.20912863 190.11904837 232.36873763 182.67590237 232.46630955 C179.21899096 232.51315788 175.7640987 232.57661335 172.30834961 232.67895508 C168.32951607 232.79604159 164.35148109 232.83922742 160.37109375 232.87890625 C158.52226845 232.9485836 158.52226845 232.9485836 156.63609314 233.01966858 C148.21968588 233.02459786 148.21968588 233.02459786 144.72047424 230.08508301 C142.9214826 227.80050199 141.44728633 225.51867388 140 223 C139.02229751 221.58378401 138.03554038 220.17372371 137.03515625 218.7734375 C136.04163638 217.3090756 135.05085301 215.84285416 134.0625 214.375 C132.93444097 212.71296632 131.80549277 211.05153589 130.67578125 209.390625 C129.78753662 208.08448242 129.78753662 208.08448242 128.88134766 206.75195312 C124.89929252 200.92717691 120.85525705 195.14529665 116.82055664 189.35693359 C116.1939917 188.45797363 115.56742676 187.55901367 114.921875 186.6328125 C114.26695068 185.7368335 113.61202637 184.84085449 112.93725586 183.91772461 C111 181 111 181 109.37719727 177.45922852 C107.51465467 173.6117161 105.674942 170.34414905 102 168 C94.12224458 165.72400573 85.52734643 166.46674805 77.4375 166.6875 C69.703125 166.790625 61.96875 166.89375 54 167 C54 188.45 54 209.9 54 232 C36.18 232 18.36 232 0 232 C0 155.44 0 78.88 0 0 Z M54 45 C54 71.07 54 97.14 54 124 C64.6115625 124.061875 64.6115625 124.061875 75.4375 124.125 C77.63204834 124.14320801 79.82659668 124.16141602 82.08764648 124.18017578 C111.64874873 124.45986403 111.64874873 124.45986403 136.68359375 110.41015625 C144.30059804 102.3372714 146.3430622 91.9595694 146.2109375 81.19140625 C145.51671887 70.68813556 141.4836078 61.97960519 133.8125 54.75 C122.88249754 46.06390533 110.32148122 44.68636248 96.87109375 44.8046875 C95.23340027 44.80770874 95.23340027 44.80770874 93.56262207 44.81079102 C89.5208714 44.82118076 85.47918106 44.84910281 81.4375 44.875 C72.383125 44.91625 63.32875 44.9575 54 45 Z " fill="#FFFFFF" transform="translate(1187,1216)"/>
<path d="M0 0 C122.77167747 0 122.77167747 0 137.75 4.25 C138.53455566 4.46688477 139.31911133 4.68376953 140.12744141 4.90722656 C160.79354818 10.82867472 179.33905485 22.35414754 190.5078125 41.19140625 C201.92002412 62.671459 203.85844338 87.69950425 197.2890625 111.0390625 C190.48330617 133.09575297 174.46403092 147.12535924 155 158 C155.36649658 158.52207031 155.73299316 159.04414062 156.1105957 159.58203125 C162.66907916 168.92820266 169.21462758 178.28180366 175.66870117 187.70043945 C179.79412379 193.71471789 183.95806752 199.70192827 188.125 205.6875 C188.81062012 206.67290771 189.49624023 207.65831543 190.20263672 208.67358398 C193.13898647 212.89321422 196.07695643 217.11165589 199.0234375 221.32421875 C199.84897536 222.50780062 200.67449787 223.6913932 201.5 224.875 C202.1909375 225.86242188 202.881875 226.84984375 203.59375 227.8671875 C205 230 205 230 205 231 C197.44648816 231.25576618 189.89342872 231.4507594 182.33656311 231.56993389 C178.82648989 231.62716259 175.31939411 231.70464164 171.81103516 231.82983398 C167.76958107 231.9731333 163.73121156 232.02573951 159.6875 232.07421875 C158.4382373 232.13099289 157.18897461 232.18776703 155.90185547 232.2462616 C147.32801993 232.25229529 147.32801993 232.25229529 143.46582031 228.61032104 C141.42091326 225.82139853 139.68233664 223.01823164 138 220 C137.14054267 218.73409872 136.26964268 217.47565959 135.375 216.234375 C134.58199235 215.07383184 133.79035419 213.91235185 133 212.75 C127.68252067 204.9736429 122.30666275 197.23865187 116.921875 189.50878906 C116.28507812 188.59452148 115.64828125 187.68025391 114.9921875 186.73828125 C113.99094849 185.36603394 113.99094849 185.36603394 112.96948242 183.96606445 C111 181 111 181 109.3684082 177.44604492 C107.50785396 173.60297129 105.67269804 170.33920734 102 168 C94.12095506 165.72579498 85.52831774 166.46672155 77.4375 166.6875 C69.703125 166.790625 61.96875 166.89375 54 167 C54 188.12 54 209.24 54 231 C36.18 231 18.36 231 0 231 C0 154.77 0 78.54 0 0 Z M54 45 C54 71.07 54 97.14 54 124 C64.6115625 124.061875 64.6115625 124.061875 75.4375 124.125 C77.63204834 124.14320801 79.82659668 124.16141602 82.08764648 124.18017578 C111.64874873 124.45986403 111.64874873 124.45986403 136.68359375 110.41015625 C144.30059804 102.3372714 146.3430622 91.9595694 146.2109375 81.19140625 C145.51671887 70.68813556 141.4836078 61.97960519 133.8125 54.75 C122.88249754 46.06390533 110.32148122 44.68636248 96.87109375 44.8046875 C95.23340027 44.80770874 95.23340027 44.80770874 93.56262207 44.81079102 C89.5208714 44.82118076 85.47918106 44.84910281 81.4375 44.875 C72.383125 44.91625 63.32875 44.9575 54 45 Z " fill="#FFFFFF" transform="translate(3073,1216)"/>
<path d="M0 0 C17.82 0 35.64 0 54 0 C54 30.03 54 60.06 54 91 C88.32 91 122.64 91 158 91 C158 60.97 158 30.94 158 0 C175.82 0 193.64 0 212 0 C212 76.23 212 152.46 212 231 C194.18 231 176.36 231 158 231 C158 199.98 158 168.96 158 137 C123.68 137 89.36 137 54 137 C54 168.02 54 199.04 54 231 C36.18 231 18.36 231 0 231 C0 154.77 0 78.54 0 0 Z " fill="#FFFFFF" transform="translate(3515,1216)"/>
<path d="M0 0 C17.82 0 35.64 0 54 0 C54.029729 5.80331909 54.029729 5.80331909 54.06005859 11.72387695 C54.1272425 24.56811028 54.20478162 37.41226407 54.28752708 50.25640583 C54.33740134 58.03672178 54.38384439 65.8170285 54.421875 73.59741211 C54.45507653 80.38799639 54.49505694 87.17850325 54.54279006 93.96900147 C54.56777909 97.55615105 54.58963735 101.14325113 54.60334396 104.73046303 C53.66864988 143.22528922 53.66864988 143.22528922 70.125 176.75 C81.51481436 187.4326862 95.80805391 188.58064297 110.5546875 188.3125 C122.49531481 187.81959485 131.69318386 183.42679529 140.6875 175.6875 C153.86310068 160.37531542 155.28425921 141.3114338 155.31884766 121.81274414 C155.328181 120.47064127 155.33835451 119.12854403 155.34928894 117.78645325 C155.37622006 114.19655868 155.39162659 110.60670247 155.40471697 107.01673436 C155.42051197 103.24511595 155.44724849 99.47357414 155.4727478 95.70201111 C155.5192494 88.58393043 155.5561305 81.46583486 155.58942068 74.34768146 C155.62784629 66.23377638 155.67720177 58.11994878 155.72740483 50.00610936 C155.83029821 33.33745697 155.91825287 16.66877154 156 0 C173.49 0 190.98 0 209 0 C209.06798824 18.44712784 209.12313859 36.89415263 209.15543652 55.3413744 C209.1708384 63.90869986 209.19179843 72.47594136 209.22631836 81.04321289 C209.25642711 88.51933358 209.27562339 95.99539341 209.28226548 103.47157305 C209.28614179 107.42209749 209.29510813 111.37244794 209.31719017 115.32291603 C209.49286528 148.05679085 207.29553044 180.74543044 184 206 C183.44957031 206.63035156 182.89914062 207.26070312 182.33203125 207.91015625 C166.8424017 224.70014976 141.65764021 234.21496605 119.17041016 235.16113281 C117.79336669 235.18101716 116.41622399 235.19473991 115.0390625 235.203125 C114.29022797 235.20882507 113.54139343 235.21452515 112.76986694 235.22039795 C111.18822619 235.22979745 109.60656629 235.2363617 108.02490234 235.24023438 C105.66596736 235.2498333 103.30794597 235.28085914 100.94921875 235.3125 C75.07864414 235.49316091 49.52850793 228.63974032 30 211 C29.24332031 210.33613281 28.48664063 209.67226562 27.70703125 208.98828125 C9.37590083 191.91919079 0.97977218 165.97803441 -0.16430283 141.48209 C-0.39986595 132.25355444 -0.35540983 123.02436734 -0.30418181 113.79379678 C-0.28517891 109.78069392 -0.28364628 105.76758122 -0.28010559 101.75444031 C-0.2708534 94.18661715 -0.24633414 86.61892703 -0.21605712 79.05116194 C-0.18229795 70.42212568 -0.16597353 61.79308241 -0.15097082 53.16399634 C-0.1197768 35.44257392 -0.0648524 17.72133341 0 0 Z " fill="#FFFFFF" transform="translate(1426,1216)"/>
<path d="M0 0 C0.95708359 0.00222061 1.91416718 0.00444122 2.9002533 0.00672913 C3.98129837 0.00680466 5.06234344 0.00688019 6.17614746 0.00695801 C7.94018166 0.01469994 7.94018166 0.01469994 9.73985291 0.02259827 C10.93702438 0.02401321 12.13419586 0.02542816 13.36764526 0.02688599 C17.20918732 0.03250472 21.05067208 0.04506041 24.89219666 0.05775452 C27.48920102 0.0627671 30.0862063 0.06733043 32.68321228 0.07142639 C39.06539344 0.08248024 45.44754096 0.0992366 51.82969666 0.12025452 C60.52151391 19.39156722 69.20257535 38.66701702 77.76719666 57.99525452 C83.95758949 71.9641392 90.23766421 85.89101587 96.54768372 99.80622864 C102.3547506 112.61487571 108.10353376 125.44762026 113.79792786 138.30671692 C118.86695347 149.74990244 124.00371516 161.16110119 129.17378235 172.55897522 C135.33400204 186.14062025 141.47746847 199.72927617 147.51765442 213.36482239 C148.179429 214.85809359 148.84243692 216.35081888 149.50672913 217.8429718 C150.41373953 219.88166784 151.31586786 221.92244706 152.21641541 223.96400452 C152.7239032 225.11062561 153.23139099 226.2572467 153.7542572 227.43861389 C154.82969666 230.12025452 154.82969666 230.12025452 154.82969666 232.12025452 C136.01969666 232.12025452 117.20969666 232.12025452 97.82969666 232.12025452 C90.88992498 217.08408255 90.88992498 217.08408255 88.18125916 210.51869202 C87.72787674 209.42495773 87.72787674 209.42495773 87.26533508 208.30912781 C86.64068229 206.79932534 86.01743383 205.28894106 85.39561462 203.77796936 C84.44066815 201.46122066 83.47710977 199.14816752 82.51329041 196.83509827 C81.90209124 195.35484498 81.2913947 193.87438403 80.68125916 192.39369202 C80.39384857 191.70624908 80.10643799 191.01880615 79.81031799 190.31053162 C78.62632319 187.4131283 77.82969666 185.28318766 77.82969666 182.12025452 C42.84969666 182.45025452 7.86969666 182.78025452 -28.17030334 183.12025452 C-36.58530334 202.92025452 -36.58530334 202.92025452 -45.17030334 223.12025452 C-46.49030334 226.09025452 -47.81030334 229.06025452 -49.17030334 232.12025452 C-67.32030334 232.12025452 -85.47030334 232.12025452 -104.17030334 232.12025452 C-103.29861854 226.89014568 -101.95596227 222.93822932 -99.76795959 218.22572327 C-99.24461281 217.07484978 -99.24461281 217.07484978 -98.71069336 215.90072632 C-97.95439877 214.2391268 -97.19496969 212.57895115 -96.43275452 210.9200592 C-94.36297118 206.41412194 -92.31697227 201.89738369 -90.26795959 197.38197327 C-89.84342499 196.44799713 -89.41889038 195.514021 -88.98149109 194.55174255 C-84.62214671 184.94663344 -80.39080551 175.28696345 -76.17030334 165.62025452 C-69.8881185 151.24760264 -63.50412686 136.92458008 -57.04530334 122.63050842 C-50.95583036 109.14856324 -44.97965488 95.62000361 -39.05335999 82.06562805 C-32.96866537 68.15399726 -26.77556484 54.29398893 -20.52336121 40.45689392 C-15.554651 29.45971317 -10.63804946 18.4460927 -5.89686584 7.34828186 C-5.54237366 6.5215094 -5.18788147 5.69473694 -4.82264709 4.84291077 C-4.52350403 4.13916321 -4.22436096 3.43541565 -3.91615295 2.71034241 C-2.81773538 0.36860961 -2.66556974 0.14769677 0 0 Z M23.82969666 55.12025452 C23.40897888 56.13708313 22.98826111 57.15391174 22.55479431 58.20155334 C20.90071476 62.19853687 19.24562868 66.19510297 17.59016418 70.19151306 C16.83425654 72.01642246 16.07849846 73.84139381 15.32289124 75.66642761 C10.80711139 86.57154403 6.271148 97.46773121 1.69297791 108.34681702 C1.07087433 109.82655251 1.07087433 109.82655251 0.436203 111.33618164 C-1.58189337 116.13620196 -3.60345733 120.93470777 -5.63075256 125.73085022 C-6.36414764 127.47386584 -7.09739144 129.21694512 -7.83045959 130.96009827 C-8.17026352 131.76029388 -8.51006744 132.5604895 -8.86016846 133.38493347 C-10.56125985 137.12279543 -10.56125985 137.12279543 -11.17030334 141.12025452 C12.25969666 141.12025452 35.68969666 141.12025452 59.82969666 141.12025452 C57.50387264 134.04419606 57.50387264 134.04419606 54.84361267 127.15248108 C54.48177383 126.28484131 54.119935 125.41720154 53.74713135 124.52326965 C53.36316696 123.61168091 52.97920258 122.70009216 52.58360291 121.76087952 C51.97194527 120.29754181 51.97194527 120.29754181 51.34793091 118.80464172 C50.03226219 115.65861917 48.71223105 112.51444743 47.39219666 109.37025452 C46.48785995 107.20960011 45.58389011 105.04879211 44.68028259 102.88783264 C43.3305511 99.66006728 41.98061672 96.43238903 40.62947083 93.20521545 C36.92346646 84.35292275 33.24329904 75.49016693 29.57969666 66.62025452 C29.08542175 65.42432678 28.59114685 64.22839905 28.08189392 62.99623108 C26.99726182 60.37113875 25.91312353 57.74584443 24.82969666 55.12025452 C24.49969666 55.12025452 24.16969666 55.12025452 23.82969666 55.12025452 Z " fill="#FFFFFF" transform="translate(2027.1703033447266,1215.8797454833984)"/>
<path d="M0 0 C7.33424667 -0.51350471 14.66455102 -0.90230984 22.0132246 -1.13986778 C25.42833708 -1.25403268 28.83105428 -1.40798996 32.23901367 -1.65966797 C54.09790865 -3.23128481 54.09790865 -3.23128481 60.43310547 2.01483154 C64.68113027 7.22789015 67.33908259 13.09903544 69.8586731 19.29376221 C71.35980916 22.85315534 73.23160314 25.90031639 75.3203125 29.1484375 C76.26173096 30.69072021 76.26173096 30.69072021 77.22216797 32.26416016 C77.85010254 33.2907373 78.47803711 34.31731445 79.125 35.375 C85.86627836 46.42629547 92.49685417 57.54058409 99.09152222 68.67987061 C105.30590483 79.17490045 111.58737516 89.62451711 118 100 C120.94836576 96.47349941 123.35703978 92.88603297 125.65234375 88.90625 C125.9883812 88.32719406 126.32441864 87.74813812 126.67063904 87.15153503 C127.38926952 85.91301876 128.10625325 84.67354574 128.82171631 83.43319702 C130.72642225 80.13312024 132.64559921 76.84150589 134.56640625 73.55078125 C134.94933838 72.89463333 135.33227051 72.23848541 135.72680664 71.56245422 C138.855841 66.21560674 142.08425914 60.93642951 145.375 55.6875 C152.23469375 44.73493655 158.81810701 33.61877234 165.36322021 22.47607422 C166.13224092 21.18264188 166.91436464 19.89690824 167.70953369 18.61938477 C169.62116912 15.52362213 171.20648014 12.61784752 172.38623047 9.16918945 C174.13231782 4.9061018 175.30133418 2.79848397 179 0 C187.90915304 -2.1857061 197.4252641 -1.21156134 206.5 -0.8125 C209.06495866 -0.747259 211.6300755 -0.68794896 214.1953125 -0.63476562 C220.4670017 -0.49182033 226.73277072 -0.27464399 233 0 C230.33131428 5.44399117 227.64454793 10.81034438 224.4609375 15.9765625 C223.80802734 17.04261719 223.15511719 18.10867188 222.48242188 19.20703125 C222.14009521 19.76213379 221.79776855 20.31723633 221.44506836 20.88916016 C219.55558441 23.95423679 217.6805005 27.02810679 215.8046875 30.1015625 C215.21533417 31.06645599 215.21533417 31.06645599 214.61407471 32.05084229 C210.17679915 39.32813655 205.83858034 46.66360504 201.5 54 C195.56045117 64.03753345 189.57176322 74.04188085 183.5 84 C176.52855821 95.43513526 169.66664902 106.93239315 162.85742188 118.46484375 C162.33714212 119.34291246 162.33714212 119.34291246 161.80635166 120.23871994 C161.06696669 121.49115443 160.33184595 122.74612563 159.60283566 124.00462723 C157.59370751 127.44260136 155.50001322 130.75433278 153.18678284 133.996521 C145.25424985 145.40521782 143.41999617 154.20242337 143.70703125 167.9140625 C143.70510308 169.74922793 143.69830862 171.58439395 143.68693542 173.41952515 C143.67014875 178.18468618 143.71818465 182.94692347 143.78112793 187.71160889 C143.84305909 193.46289349 143.82201687 199.21443725 143.81536102 204.9659729 C143.8143673 213.64578269 143.91678702 222.31875705 144 231 C125.85 231 107.7 231 89 231 C89.12503906 225.41707031 89.25007813 219.83414062 89.37890625 214.08203125 C89.42032325 210.47676204 89.45651041 206.87285857 89.47460938 203.26757812 C89.50361915 197.5835598 89.54862403 191.90393515 89.7097168 186.22192383 C90.39418214 161.11971667 88.30604431 143.57399404 73.20294189 123.061203 C69.53283319 117.96122836 66.36132079 112.57094029 63.125 107.1875 C62.39019192 105.99469554 61.6533784 104.80311808 60.91259766 103.61401367 C55.66158364 95.14215288 50.56998945 86.5809705 45.5 78 C39.75432331 68.27675759 33.94866428 58.60090582 28 49 C22.21077407 39.64333114 16.49792091 30.24394375 10.85913086 20.79589844 C10.00088077 19.35896381 9.1408791 17.92307379 8.27905273 16.48828125 C7.07800929 14.48740247 5.88378845 12.48261165 4.69140625 10.4765625 C4.15200157 9.58150497 4.15200157 9.58150497 3.60169983 8.66836548 C1.90188149 5.79083015 0.71709884 3.25361804 0 0 Z " fill="#FFFFFF" transform="translate(3744,1216)"/>
<path d="M0 0 C66.66 0 133.32 0 202 0 C202 14.85 202 29.7 202 45 C177.58 45 153.16 45 128 45 C128 106.38 128 167.76 128 231 C110.18 231 92.36 231 74 231 C74 169.62 74 108.24 74 45 C49.58 45 25.16 45 0 45 C0 30.15 0 15.3 0 0 Z " fill="#FFFFFF" transform="translate(3286,1216)"/>
<path d="M0 0 C36.96 0 73.92 0 112 0 C112 20.46 112 40.92 112 62 C111.01 62 110.02 62 109 62 C109 62.66 109 63.32 109 64 C108.27554688 64.12117187 107.55109375 64.24234375 106.8046875 64.3671875 C102.6399064 65.08908289 98.64126668 65.78624444 94.625 67.125 C91.91902355 68.02699215 89.83080012 68.16651765 87 68 C87 68.66 87 69.32 87 70 C85.03387584 70.73313104 83.06774448 71.46624278 81.1015625 72.19921875 C79.45035157 72.82839764 77.81536743 73.5001782 76.1875 74.1875 C74 75 74 75 71 75 C71 75.66 71 76.32 71 77 C69.02 77.33 67.04 77.66 65 78 C65 78.66 65 79.32 65 80 C63.515 80.495 63.515 80.495 62 81 C61.67 81.66 61.34 82.32 61 83 C59.04741237 84.08136579 57.03840042 84.97696512 55.0078125 85.90234375 C52.64923199 87.06951674 52.64923199 87.06951674 50 90 C42 97 42 97 0 97 C0 64.99 0 32.98 0 0 Z " fill="#FEFEFE" transform="translate(709,593)"/>
<path d="M0 0 C1.01974411 -0.00525696 1.01974411 -0.00525696 2.06008911 -0.01062012 C4.31229801 -0.01943875 6.56419403 -0.01358799 8.81640625 -0.00683594 C10.37817444 -0.00818255 11.93994223 -0.01012306 13.50170898 -0.01263428 C16.77689602 -0.01558571 20.05197406 -0.01128733 23.32714844 -0.00195312 C27.53074316 0.00944149 31.7340825 0.00288211 35.93766785 -0.00909805 C39.16322767 -0.01631617 42.3887267 -0.01402896 45.61428833 -0.00884247 C47.16447988 -0.00750583 48.7146769 -0.00915418 50.26486206 -0.01380157 C52.42932818 -0.01886609 54.59337752 -0.01115804 56.7578125 0 C58.60741577 0.00238678 58.60741577 0.00238678 60.49438477 0.00482178 C63.37890625 0.25878906 63.37890625 0.25878906 65.37890625 2.25878906 C65.63287354 5.02941895 65.63287354 5.02941895 65.63769531 8.60449219 C65.64119995 9.25506088 65.64470459 9.90562958 65.64831543 10.57591248 C65.65713254 12.73072924 65.65128388 14.88521884 65.64453125 17.04003906 C65.64587791 18.53454654 65.64781845 20.02905359 65.65032959 21.52355957 C65.65328082 24.65751308 65.64898332 27.79135268 65.63964844 30.92529297 C65.62825382 34.94728919 65.63481331 38.96901852 65.64679337 42.99100494 C65.65401205 46.07759623 65.65172402 49.16412399 65.64653778 52.25071716 C65.6452013 53.73392264 65.64684894 55.21713384 65.65149689 56.70033264 C65.65656237 58.77140638 65.64885209 60.84204472 65.63769531 62.91308594 C65.63610413 64.09286011 65.63451294 65.27263428 65.63287354 66.48815918 C65.37890625 69.25878906 65.37890625 69.25878906 63.37890625 71.25878906 C60.49438477 71.51275635 60.49438477 71.51275635 56.7578125 71.51757812 C56.07798309 71.52108276 55.39815369 71.5245874 54.69772339 71.52819824 C52.44551449 71.53701687 50.19361847 71.53116611 47.94140625 71.52441406 C46.37963806 71.52576068 44.81787027 71.52770118 43.25610352 71.5302124 C39.98091648 71.53316384 36.70583844 71.52886545 33.43066406 71.51953125 C29.22706934 71.50813664 25.02373 71.51469601 20.82014465 71.52667618 C17.59458483 71.53389429 14.3690858 71.53160709 11.14352417 71.52642059 C9.59333262 71.52508396 8.0431356 71.5267323 6.49295044 71.5313797 C4.32848432 71.53644422 2.16443498 71.52873616 0 71.51757812 C-1.84960327 71.51519135 -1.84960327 71.51519135 -3.73657227 71.51275635 C-6.62109375 71.25878906 -6.62109375 71.25878906 -8.62109375 69.25878906 C-8.87506104 66.48815918 -8.87506104 66.48815918 -8.87988281 62.91308594 C-8.88338745 62.26251724 -8.88689209 61.61194855 -8.89050293 60.94166565 C-8.89932004 58.78684889 -8.89347138 56.63235928 -8.88671875 54.47753906 C-8.88806541 52.98303158 -8.89000595 51.48852453 -8.89251709 49.99401855 C-8.89546832 46.86006504 -8.89117082 43.72622544 -8.88183594 40.59228516 C-8.87044132 36.57028893 -8.87700081 32.54855961 -8.88898087 28.52657318 C-8.89619955 25.43998189 -8.89391152 22.35345414 -8.88872528 19.26686096 C-8.8873888 17.78365548 -8.88903644 16.30044428 -8.89368439 14.81724548 C-8.89874987 12.74617175 -8.89103959 10.6755334 -8.87988281 8.60449219 C-8.87829163 7.42471802 -8.87670044 6.24494385 -8.87506104 5.02941895 C-8.35145261 -0.6828331 -4.86303507 0.0062754 0 0 Z " fill="#FFFFFF" transform="translate(569.62109375,486.7412109375)"/>
<path d="M0 0 C1.4616156 -0.00945648 1.4616156 -0.00945648 2.95275879 -0.019104 C4.53558655 -0.01303131 4.53558655 -0.01303131 6.15039062 -0.00683594 C7.23042358 -0.00874939 8.31045654 -0.01066284 9.42321777 -0.01263428 C11.70971916 -0.01399701 13.99622826 -0.01029445 16.28271484 -0.00195312 C19.79216817 0.00874495 23.30110956 -0.00184566 26.81054688 -0.01464844 C29.02799593 -0.01332686 31.24544466 -0.0107645 33.46289062 -0.00683594 C34.51810913 -0.0108844 35.57332764 -0.01493286 36.66052246 -0.019104 C37.63493286 -0.01279968 38.60934326 -0.00649536 39.61328125 0 C40.47328735 0.00159119 41.33329346 0.00318237 42.21936035 0.00482178 C44.30664062 0.25878906 44.30664062 0.25878906 46.30664062 2.25878906 C46.56060791 4.30810547 46.56060791 4.30810547 46.56542969 6.86035156 C46.57173401 7.81474121 46.57803833 8.76913086 46.58453369 9.75244141 C46.58048523 10.78578613 46.57643677 11.81913086 46.57226562 12.88378906 C46.5751358 14.47054443 46.5751358 14.47054443 46.57806396 16.08935547 C46.57942665 18.32877846 46.57572445 20.56820932 46.56738281 22.80761719 C46.55668465 26.24464584 46.5672755 29.68115176 46.58007812 33.11816406 C46.57875655 35.29004022 46.57619418 37.46191605 46.57226562 39.63378906 C46.57631409 40.66713379 46.58036255 41.70047852 46.58453369 42.76513672 C46.57822937 43.71952637 46.57192505 44.67391602 46.56542969 45.65722656 C46.5638385 46.49946777 46.56224731 47.34170898 46.56060791 48.20947266 C46.30664062 50.25878906 46.30664062 50.25878906 44.30664062 52.25878906 C42.21936035 52.51275635 42.21936035 52.51275635 39.61328125 52.51757812 C38.15166565 52.52703461 38.15166565 52.52703461 36.66052246 52.53668213 C35.0776947 52.53060944 35.0776947 52.53060944 33.46289062 52.52441406 C32.38285767 52.52632751 31.30282471 52.52824097 30.19006348 52.5302124 C27.90356209 52.53157514 25.61705299 52.52787258 23.33056641 52.51953125 C19.82111308 52.50883318 16.31217169 52.51942379 12.80273438 52.53222656 C10.58528532 52.53090498 8.36783659 52.52834262 6.15039062 52.52441406 C5.09517212 52.52846252 4.03995361 52.53251099 2.95275879 52.53668213 C1.49114319 52.52722565 1.49114319 52.52722565 0 52.51757812 C-0.8600061 52.51598694 -1.72001221 52.51439575 -2.6060791 52.51275635 C-4.69335938 52.25878906 -4.69335938 52.25878906 -6.69335938 50.25878906 C-6.94732666 48.20947266 -6.94732666 48.20947266 -6.95214844 45.65722656 C-6.95845276 44.70283691 -6.96475708 43.74844727 -6.97125244 42.76513672 C-6.96720398 41.73179199 -6.96315552 40.69844727 -6.95898438 39.63378906 C-6.96089783 38.57595215 -6.96281128 37.51811523 -6.96478271 36.42822266 C-6.9661454 34.18879967 -6.9624432 31.9493688 -6.95410156 29.70996094 C-6.9434034 26.27293229 -6.95399425 22.83642636 -6.96679688 19.39941406 C-6.9654753 17.2275379 -6.96291293 15.05566207 -6.95898438 12.88378906 C-6.96505707 11.33377197 -6.96505707 11.33377197 -6.97125244 9.75244141 C-6.96494812 8.79805176 -6.9586438 7.84366211 -6.95214844 6.86035156 C-6.95055725 6.01811035 -6.94896606 5.17586914 -6.94732666 4.30810547 C-6.40667504 -0.05452821 -3.7319791 0.00690492 0 0 Z " fill="#EB2248" transform="translate(706.693359375,484.7412109375)"/>
<path d="M0 0 C1.15628906 0.00607269 1.15628906 0.00607269 2.3359375 0.01226807 C3.12742187 0.01035461 3.91890625 0.00844116 4.734375 0.00646973 C6.4088574 0.00510789 8.08335035 0.00880425 9.7578125 0.01715088 C12.32576131 0.02785067 14.89301053 0.01725582 17.4609375 0.00445557 C19.08593905 0.00577716 20.71094016 0.00833956 22.3359375 0.01226807 C23.10679687 0.0082196 23.87765625 0.00417114 24.671875 0 C30.10601618 0.04797174 30.10601618 0.04797174 32.3359375 2.27789307 C32.53542307 4.7635585 32.61583493 7.13540056 32.6015625 9.62164307 C32.60443268 10.70898743 32.60443268 10.70898743 32.60736084 11.81829834 C32.60872237 13.35154568 32.60502814 14.88480456 32.59667969 16.41802979 C32.58597928 18.76871566 32.59657558 21.11863729 32.609375 23.46929932 C32.6080534 24.95758226 32.60549099 26.44586472 32.6015625 27.93414307 C32.60561096 28.6393811 32.60965942 29.34461914 32.61383057 30.07122803 C32.56586236 35.04796821 32.56586236 35.04796821 30.3359375 37.27789307 C27.63458427 37.4776304 25.03796539 37.5577088 22.3359375 37.54351807 C21.54445313 37.54543152 20.75296875 37.54734497 19.9375 37.54931641 C18.2630176 37.55067824 16.58852465 37.54698188 14.9140625 37.53863525 C12.34611369 37.52793547 9.77886447 37.53853032 7.2109375 37.55133057 C5.58593595 37.55000897 3.96093484 37.54744658 2.3359375 37.54351807 C1.17964844 37.54959076 1.17964844 37.54959076 0 37.55578613 C-5.43414118 37.50781439 -5.43414118 37.50781439 -7.6640625 35.27789307 C-7.86354807 32.79222764 -7.94395993 30.42038557 -7.9296875 27.93414307 C-7.93160095 27.20924683 -7.9335144 26.48435059 -7.93548584 25.73748779 C-7.93684737 24.20424045 -7.93315314 22.67098157 -7.92480469 21.13775635 C-7.91410428 18.78707048 -7.92470058 16.43714884 -7.9375 14.08648682 C-7.9361784 12.59820387 -7.93361599 11.10992141 -7.9296875 9.62164307 C-7.93373596 8.91640503 -7.93778442 8.21116699 -7.94195557 7.48455811 C-7.87944278 0.99880642 -6.38342901 0.05635191 0 0 Z " fill="#FFFFFF" transform="translate(773.6640625,427.72210693359375)"/>
<path d="M0 0 C1.02075623 -0.00287018 1.02075623 -0.00287018 2.06213379 -0.00579834 C3.50122446 -0.00715963 4.94032744 -0.00346705 6.37939453 0.00488281 C8.58524087 0.01558372 10.79027281 0.00498628 12.99609375 -0.0078125 C14.39323097 -0.00649089 15.79036768 -0.00392848 17.1875 0 C18.46302734 0.00225586 19.73855469 0.00451172 21.05273438 0.00683594 C24.09375 0.265625 24.09375 0.265625 26.09375 2.265625 C26.35253906 5.30664062 26.35253906 5.30664062 26.359375 9.171875 C26.36224518 10.19263123 26.36224518 10.19263123 26.36517334 11.23400879 C26.36653463 12.67309946 26.36284205 14.11220244 26.35449219 15.55126953 C26.34379128 17.75711587 26.35438872 19.96214781 26.3671875 22.16796875 C26.36586589 23.56510597 26.36330348 24.96224268 26.359375 26.359375 C26.35711914 27.63490234 26.35486328 28.91042969 26.35253906 30.22460938 C26.09375 33.265625 26.09375 33.265625 24.09375 35.265625 C21.05273438 35.52441406 21.05273438 35.52441406 17.1875 35.53125 C16.16674377 35.53412018 16.16674377 35.53412018 15.12536621 35.53704834 C13.68627554 35.53840963 12.24717256 35.53471705 10.80810547 35.52636719 C8.60225913 35.51566628 6.39722719 35.52626372 4.19140625 35.5390625 C2.79426903 35.53774089 1.39713232 35.53517848 0 35.53125 C-1.27552734 35.52899414 -2.55105469 35.52673828 -3.86523438 35.52441406 C-6.90625 35.265625 -6.90625 35.265625 -8.90625 33.265625 C-9.16503906 30.22460938 -9.16503906 30.22460938 -9.171875 26.359375 C-9.17378845 25.67887085 -9.1757019 24.9983667 -9.17767334 24.29724121 C-9.17903463 22.85815054 -9.17534205 21.41904756 -9.16699219 19.97998047 C-9.15629128 17.77413413 -9.16688872 15.56910219 -9.1796875 13.36328125 C-9.17836589 11.96614403 -9.17580348 10.56900732 -9.171875 9.171875 C-9.16961914 7.89634766 -9.16736328 6.62082031 -9.16503906 5.30664062 C-8.65160593 -0.72668309 -5.18692819 0.00917345 0 0 Z " fill="#FFFFFF" transform="translate(816.90625,503.734375)"/>
<path d="M0 0 C1.53333984 -0.00386719 1.53333984 -0.00386719 3.09765625 -0.0078125 C4.16886719 -0.00007813 5.24007812 0.00765625 6.34375 0.015625 C7.95056641 0.00402344 7.95056641 0.00402344 9.58984375 -0.0078125 C10.61207031 -0.00523437 11.63429688 -0.00265625 12.6875 0 C13.62787109 0.00225586 14.56824219 0.00451172 15.53710938 0.00683594 C17.84375 0.265625 17.84375 0.265625 19.84375 2.265625 C20.10253906 4.38867188 20.10253906 4.38867188 20.109375 6.984375 C20.11324219 8.38236328 20.11324219 8.38236328 20.1171875 9.80859375 C20.10945312 10.78441406 20.10171875 11.76023437 20.09375 12.765625 C20.10148438 13.74144531 20.10921875 14.71726562 20.1171875 15.72265625 C20.11460937 16.65464844 20.11203125 17.58664062 20.109375 18.546875 C20.10711914 19.40345703 20.10486328 20.26003906 20.10253906 21.14257812 C19.84375 23.265625 19.84375 23.265625 17.84375 25.265625 C15.53710938 25.52441406 15.53710938 25.52441406 12.6875 25.53125 C11.15416016 25.53511719 11.15416016 25.53511719 9.58984375 25.5390625 C8.51863281 25.53132813 7.44742188 25.52359375 6.34375 25.515625 C4.73693359 25.52722656 4.73693359 25.52722656 3.09765625 25.5390625 C2.07542969 25.53648437 1.05320312 25.53390625 0 25.53125 C-0.94037109 25.52899414 -1.88074219 25.52673828 -2.84960938 25.52441406 C-5.15625 25.265625 -5.15625 25.265625 -7.15625 23.265625 C-7.41503906 21.14257812 -7.41503906 21.14257812 -7.421875 18.546875 C-7.42445313 17.61488281 -7.42703125 16.68289063 -7.4296875 15.72265625 C-7.42195312 14.74683594 -7.41421875 13.77101563 -7.40625 12.765625 C-7.41398438 11.78980469 -7.42171875 10.81398438 -7.4296875 9.80859375 C-7.42710937 8.87660156 -7.42453125 7.94460938 -7.421875 6.984375 C-7.41961914 6.12779297 -7.41736328 5.27121094 -7.41503906 4.38867188 C-6.85235794 -0.22743668 -3.91987592 0.0094034 0 0 Z " fill="#EB2248" transform="translate(862.15625,418.734375)"/>
<path d="M0 0 C-0.99 0.33 -1.98 0.66 -3 1 C-3 1.66 -3 2.32 -3 3 C-3.72445312 3.12117187 -4.44890625 3.24234375 -5.1953125 3.3671875 C-9.3600936 4.08908289 -13.35873332 4.78624444 -17.375 6.125 C-20.08097645 7.02699215 -22.16919988 7.16651765 -25 7 C-25 7.66 -25 8.32 -25 9 C-26.96612416 9.73313104 -28.93225552 10.46624278 -30.8984375 11.19921875 C-32.54964843 11.82839764 -34.18463257 12.5001782 -35.8125 13.1875 C-38 14 -38 14 -41 14 C-41 14.66 -41 15.32 -41 16 C-43.97 16.495 -43.97 16.495 -47 17 C-47 17.66 -47 18.32 -47 19 C-47.99 19.33 -48.98 19.66 -50 20 C-50.33 20.66 -50.66 21.32 -51 22 C-52.95258763 23.08136579 -54.96159958 23.97696512 -56.9921875 24.90234375 C-59.10348239 26.05657306 -60.37104686 27.2424453 -62 29 C-63.27539363 30.24604357 -64.56803321 31.47461448 -65.875 32.6875 C-66.53242187 33.31011719 -67.18984375 33.93273437 -67.8671875 34.57421875 C-70.44167069 36.29525605 -71.9641108 36.2803173 -75 36 C-71.44207118 31.32347992 -67.97250339 28.02010052 -62.83203125 25.140625 C-60.95860068 24.07627584 -60.95860068 24.07627584 -59.5625 22.51953125 C-55.07737189 18.15774416 -47.90430965 15.70914227 -42 14 C-42 13.34 -42 12.68 -42 12 C-41.01 12 -40.02 12 -39 12 C-39 11.34 -39 10.68 -39 10 C-33.91059256 7.94637945 -29.45479185 6.56820748 -24 6 C-24 5.34 -24 4.68 -24 4 C-18.06 3.505 -18.06 3.505 -12 3 C-12 2.34 -12 1.68 -12 1 C-7.9472484 0.01751476 -4.16138263 -0.08159574 0 0 Z " fill="#9A9A9A" transform="translate(821,654)"/>
<path d="M0 0 C1.4540625 0.0309375 1.4540625 0.0309375 2.9375 0.0625 C-0.0625 2.0625 -0.0625 2.0625 -3.0625 2.0625 C-3.0625 2.7225 -3.0625 3.3825 -3.0625 4.0625 C-4.0525 4.3925 -5.0425 4.7225 -6.0625 5.0625 C-6.3925 5.7225 -6.7225 6.3825 -7.0625 7.0625 C-9.01508763 8.14386579 -11.02409958 9.03946512 -13.0546875 9.96484375 C-15.16598239 11.11907306 -16.43354686 12.3049453 -18.0625 14.0625 C-19.33789363 15.30854357 -20.63053321 16.53711448 -21.9375 17.75 C-22.59492187 18.37261719 -23.25234375 18.99523437 -23.9296875 19.63671875 C-26.50417069 21.35775605 -28.0266108 21.3428173 -31.0625 21.0625 C-27.50457118 16.38597992 -24.03500339 13.08260052 -18.89453125 10.203125 C-17.02199069 9.14159657 -17.02199069 9.14159657 -15.64453125 7.5859375 C-13.61491911 5.63149618 -11.47688739 4.64426427 -8.9375 3.4375 C-1.82800388 0.0373062 -1.82800388 0.0373062 0 0 Z " fill="#A4A4A4" transform="translate(777.0625,668.9375)"/>
<path d="M0 0 C-3 2 -3 2 -6 2 C-6 2.66 -6 3.32 -6 4 C-6.99 4.33 -7.98 4.66 -9 5 C-9.33 5.66 -9.66 6.32 -10 7 C-12.375 8.6875 -12.375 8.6875 -15 10 C-15.99 9.67 -16.98 9.34 -18 9 C-7.31972362 -0.51067839 -7.31972362 -0.51067839 0 0 Z " fill="#8B8B8B" transform="translate(780,669)"/>
<path d="M0 0 C0.99 0.33 1.98 0.66 3 1 C1.02 2.98 -0.96 4.96 -3 7 C-3.99 6.67 -4.98 6.34 -6 6 C-4.02 4.02 -2.04 2.04 0 0 Z " fill="#858585" transform="translate(754,683)"/>
</svg>
