<svg xmlns="http://www.w3.org/2000/svg" width="302.158" height="60.2" viewBox="0 0 302.158 60.2">
  <g id="Group_4560" data-name="Group 4560" transform="translate(-38.563 -36.198)">
    <circle id="Ellipse_163" data-name="Ellipse 163" cx="7.302" cy="7.302" r="7.302" transform="translate(63.969 46.813)" fill="#fff"/>
    <circle id="Ellipse_164" data-name="Ellipse 164" cx="7.302" cy="7.302" r="7.302" transform="translate(38.563 80.586)" fill="#fff"/>
    <circle id="Ellipse_165" data-name="Ellipse 165" cx="5.228" cy="5.228" r="5.228" transform="translate(52.09 64.71)" fill="#fff"/>
    <circle id="Ellipse_166" data-name="Ellipse 166" cx="5.228" cy="5.228" r="5.228" transform="translate(84.02 64.71)" fill="#fff"/>
    <circle id="Ellipse_167" data-name="Ellipse 167" cx="7.302" cy="7.302" r="7.302" transform="translate(90.437 81.645)" fill="#f22248"/>
    <circle id="Ellipse_168" data-name="Ellipse 168" cx="5.228" cy="5.228" r="5.228" transform="translate(65.667 74.074)" fill="#f22248"/>
    <path id="Path_1329" data-name="Path 1329" d="M226.338,184.18s.41.42.963,1.089c1.3,1.565,3.7,4.321,5.824,4.978,7.521,2.358,15.222-2.315,19.564.543l-6.364,13.135s-2.185-.818-4.805-4.253-4.568-5.191-7.1-6.552c-4.9-2.654-10.268-.33-11.861-.33C222.915,189.532,226.338,184.18,226.338,184.18Z" transform="translate(-151.459 -108.26)" fill="#f22248"/>
    <path id="Path_1330" data-name="Path 1330" d="M1.924-14.456C1.924-5.616,7.9.468,15.34.468A12.332,12.332,0,0,0,25.376-4.264V0h5.98V-28.652h-5.98v4.16a12.2,12.2,0,0,0-9.932-4.628C7.9-29.12,1.924-23.3,1.924-14.456Zm23.452.1c0,6.188-4.212,9.672-8.684,9.672-4.42,0-8.684-3.588-8.684-9.776s4.264-9.516,8.684-9.516C21.164-23.972,25.376-20.488,25.376-14.352ZM65.1-28.652H59.176v15.964c0,5.252-2.86,7.956-7.228,7.956-4.316,0-7.176-2.7-7.176-7.956V-28.652H38.9V-11.8C38.9-3.8,43.992.416,50.7.416a10.665,10.665,0,0,0,8.476-3.848V0H65.1Zm5.824,14.2c0,8.84,5.98,14.924,13.52,14.924A11.879,11.879,0,0,0,94.38-4.316V0h5.98V-38.48H94.38v13.832A13.2,13.2,0,0,0,84.5-29.12C76.908-29.12,70.928-23.3,70.928-14.456Zm23.452.1c0,6.188-4.212,9.672-8.684,9.672-4.42,0-8.684-3.588-8.684-9.776s4.264-9.516,8.684-9.516C90.168-23.972,94.38-20.488,94.38-14.352Zm25.844-9.776c4.42,0,7.9,2.808,8.008,7.228h-15.86C113-21.424,116.22-24.128,120.224-24.128Zm13.416,15.6h-6.4a6.936,6.936,0,0,1-6.76,4,7.881,7.881,0,0,1-8.164-7.592h21.892a18.286,18.286,0,0,0,.208-2.912c0-8.424-5.772-14.092-13.936-14.092-8.476,0-14.3,5.772-14.3,14.768s6.084,14.82,14.3,14.82C127.5.468,132.028-3.536,133.64-8.528ZM160.576,0h5.876V-16.9c0-8.008-5.044-12.22-11.752-12.22a11.022,11.022,0,0,0-8.528,3.744v-3.276h-5.928V0h5.928V-16.016c0-5.252,2.86-7.956,7.228-7.956,4.316,0,7.176,2.7,7.176,7.956Zm14.352-7.956C174.928-2.132,178.1,0,183.2,0h4.68V-4.94h-3.64c-2.5,0-3.328-.884-3.328-3.016v-15.86h6.968v-4.836h-6.968v-7.124h-5.98v7.124h-3.38v4.836h3.38Z" transform="translate(120 74.678)" fill="#fff"/>
    <path id="Path_1331" data-name="Path 1331" d="M4.832-11.12H1.2V0H4.832c3.568,0,5.9-2.1,5.9-5.52C10.736-8.96,8.4-11.12,4.832-11.12ZM3.024-1.488V-9.632H4.832c2.624,0,4.032,1.568,4.032,4.112A3.658,3.658,0,0,1,4.832-1.488ZM38.144,0h1.824V-11.12H38.144Zm34.9-11.264a5.562,5.562,0,0,0-5.68,5.68A5.553,5.553,0,0,0,73.04.1a5.483,5.483,0,0,0,5.5-4.768V-6.1H72.416V-4.64h4.176A3.367,3.367,0,0,1,73.04-1.552a3.733,3.733,0,0,1-3.808-4.032A3.72,3.72,0,0,1,73.04-9.6a3.161,3.161,0,0,1,2.976,1.68h2.192A5.3,5.3,0,0,0,73.04-11.264ZM105.936,0h1.824V-11.12h-1.824Zm29.248-9.632h2.976V0h1.824V-9.632h2.96V-11.12h-7.76ZM177.888,0h1.92l-3.984-11.136h-2.112L169.728,0h1.9l.8-2.272h4.656Zm-1.312-3.76h-3.632l1.824-5.168Zm30.56-7.36V0h5.584V-1.472h-3.76V-11.12Z" transform="translate(128 96.302)" fill="#fff"/>
    <path id="Path_1332" data-name="Path 1332" d="M220.636-14.352c0-9-6.448-14.768-14.612-14.768s-14.612,5.772-14.612,14.768S197.6.468,205.764.468C213.98.468,220.636-5.356,220.636-14.352Zm-23.192,0c0-6.5,4-9.62,8.476-9.62,4.42,0,8.632,3.12,8.632,9.62s-4.368,9.672-8.788,9.672C201.292-4.68,197.444-7.852,197.444-14.352Z" transform="translate(120.076 74.678)" fill="#f22248"/>
  </g>
</svg>
