<?xml version="1.0" encoding="UTF-8" standalone="no"?>
<svg xmlns:inkscape="http://www.inkscape.org/namespaces/inkscape" xmlns:sodipodi="http://sodipodi.sourceforge.net/DTD/sodipodi-0.dtd" xmlns="http://www.w3.org/2000/svg" xmlns:svg="http://www.w3.org/2000/svg" version="1.0" width="1283.7378pt" height="1578.9285pt" viewBox="0 0 1283.7378 1578.9285" preserveAspectRatio="xMidYMid meet" id="svg22" sodipodi:docname="a4e17d3979007792e9efd19459847aef.svg"><metadata><meta name="Producer" content="Online-Convert"/></metadata>
  <defs id="defs26"/>
  <sodipodi:namedview id="namedview24" pagecolor="#ffffff" bordercolor="#666666" borderopacity="1.0" inkscape:pageshadow="2" inkscape:pageopacity="0.0" inkscape:pagecheckerboard="0" inkscape:document-units="pt"/>
  <g transform="matrix(0.1,0,0,-0.1,-352,1789.0077)" fill="#000000" stroke="none" id="g20">
    <path d="m 14827,17872 c -14,-15 -17,-42 -17,-154 0,-177 -10,-168 187,-168 193,0 183,-9 183,172 0,177 10,168 -187,168 -133,0 -152,-2 -166,-18 z" fill="#eb2248" id="path2"/>
    <path d="m 13616,17754 c -14,-13 -16,-49 -16,-234 0,-185 2,-221 16,-234 13,-14 50,-16 254,-16 204,0 241,2 254,16 14,13 16,49 16,234 0,185 -2,221 -16,234 -13,14 -50,16 -254,16 -204,0 -241,-2 -254,-16 z" fill="#ffffff" id="path4"/>
    <path d="m 12727,16972 c -15,-16 -17,-55 -17,-334 0,-292 1,-316 18,-331 17,-15 55,-17 344,-17 302,0 326,1 341,18 15,16 17,55 17,334 0,292 -1,316 -18,331 -17,15 -55,17 -344,17 -302,0 -326,-1 -341,-18 z" fill="#ffffff" id="path6"/>
    <path d="m 10836,16954 c -14,-14 -16,-70 -16,-469 0,-399 2,-455 16,-469 14,-14 72,-16 489,-16 417,0 475,2 489,16 14,14 16,70 16,469 0,399 -2,455 -16,469 -14,14 -72,16 -489,16 -417,0 -475,-2 -489,-16 z" fill="#ffffff" id="path8"/>
    <path d="m 14186,16724 c -14,-13 -16,-47 -16,-219 0,-172 2,-206 16,-219 13,-14 48,-16 224,-16 176,0 211,2 224,16 14,13 16,47 16,219 0,172 -2,206 -16,219 -13,14 -48,16 -224,16 -176,0 -211,-2 -224,-16 z" fill="#ffffff" id="path10"/>
    <path d="m 12836,15514 c -14,-14 -16,-86 -16,-644 0,-558 2,-630 16,-644 13,-14 50,-16 251,-16 226,0 236,1 266,22 18,12 39,29 47,38 21,23 134,109 205,155 59,39 262,145 277,145 5,0 27,9 51,19 62,29 116,45 274,82 l 143,34 v 397 c 0,347 -2,399 -16,412 -14,14 -95,16 -749,16 -654,0 -735,-2 -749,-16 z" fill="#ffffff" id="path12"/>
    <path d="m 9367,15252 c -16,-17 -17,-108 -17,-1099 0,-1033 1,-1081 18,-1096 17,-16 127,-17 1384,-17 1310,0 1366,1 1381,18 16,17 17,108 17,1099 0,1033 -1,1081 -18,1096 -17,16 -127,17 -1384,17 -1310,0 -1366,-1 -1381,-18 z" fill="#eb2248" id="path14"/>
    <path d="m 3652,14589 c -44,-13 -108,-79 -121,-126 -8,-26 -11,-482 -11,-1434 0,-1357 1,-1398 20,-1473 29,-113 73,-190 160,-276 86,-87 163,-131 276,-160 76,-20 118,-20 2061,-20 H 8020 V 6867 c 0,-4184 0,-4235 20,-4311 29,-113 73,-190 160,-277 53,-54 96,-86 147,-112 145,-71 58,-68 1628,-65 l 1410,3 38,24 c 21,13 50,42 65,64 l 27,41 3,5093 2,5093 H 10040 8560 v 1090 1090 l -2437,-1 c -1504,0 -2451,-4 -2471,-10 z" fill="#ffffff" id="path16"/>
    <path d="m 14431,14589 c -607,-68 -1130,-435 -1391,-974 -236,-486 -236,-1044 0,-1530 242,-500 713,-855 1270,-957 162,-29 437,-29 601,0 553,100 1028,458 1269,957 305,629 212,1359 -243,1901 -249,297 -635,518 -1023,584 -139,24 -363,33 -483,19 z" fill="#eb2248" id="path18"/>
  </g>
</svg>
